<svg width="2378" height="2270" viewBox="0 0 2378 2270" fill="none" xmlns="http://www.w3.org/2000/svg">
<path d="M1533.94 1669.68C1866.7 1650.24 2040.85 1256.26 2086.32 1061.7C2247.03 428.117 1085.89 530.221 1042.46 1055.9C999.032 1581.58 238.644 751.805 225.908 1077.27C213.173 1402.74 641.083 1897.79 920.639 1991.09C1200.19 2084.4 1118 1693.99 1533.94 1669.68Z" stroke="url(#paint0_linear_1_1398)" stroke-opacity="0.5"/>
<path d="M1353.11 1077.94C1528.38 1067.56 1620.27 860.005 1644.31 757.523C1729.24 423.785 1117.64 478.036 1094.53 754.9C1071.42 1031.76 671.313 595.08 664.46 766.49C657.607 937.901 882.758 1198.44 1029.95 1247.46C1177.15 1296.48 1134.03 1090.91 1353.11 1077.94Z" stroke="url(#paint1_linear_1_1398)" stroke-opacity="0.5"/>
<path d="M1525.52 1641.22C1850.66 1622.4 2020.59 1237.5 2064.91 1047.41C2221.57 428.363 1087.03 527.496 1044.91 1041.16C1002.79 1554.83 259.283 743.556 247.034 1061.59C234.785 1379.63 653.211 1863.62 926.432 1954.95C1199.65 2046.28 1119.1 1664.74 1525.52 1641.22Z" stroke="url(#paint2_linear_1_1398)" stroke-opacity="0.5"/>
<path d="M1517.03 1612.92C1834.68 1594.39 2000.88 1218.31 2044.27 1032.58C2197.63 427.775 1089.22 525.147 1047.8 1026.96C1006.39 1528.78 280.452 736.601 268.324 1047.29C256.196 1357.99 664.725 1830.6 931.596 1919.69C1198.47 2008.78 1119.97 1636.09 1517.03 1612.92Z" stroke="url(#paint3_linear_1_1398)" stroke-opacity="0.5"/>
<path d="M1508.11 1584.91C1818.27 1566.89 1980.45 1199.71 2022.77 1018.37C2172.35 427.846 1090.1 522.652 1049.8 1012.64C1009.5 1502.62 300.463 728.926 288.704 1032.3C276.946 1335.67 675.966 1797.24 936.568 1884.3C1197.17 1971.36 1120.42 1607.43 1508.11 1584.91Z" stroke="url(#paint4_linear_1_1398)" stroke-opacity="0.5"/>
<path d="M1499.62 1556.62C1802.28 1538.88 1960.74 1180.52 2002.13 1003.55C2148.41 427.261 1092.29 520.306 1052.69 998.438C1013.1 1476.57 321.634 721.973 309.997 1018C298.359 1314.02 687.482 1764.22 941.735 1849.04C1195.99 1933.86 1121.29 1578.79 1499.62 1556.62Z" stroke="url(#paint5_linear_1_1398)" stroke-opacity="0.5"/>
<path d="M1490.71 1528.6C1785.87 1511.38 1940.31 1161.92 1980.63 989.337C2123.13 427.335 1093.17 517.813 1054.69 984.112C1016.21 1450.41 341.648 714.3 330.38 1003C319.111 1291.71 698.726 1730.87 946.71 1813.65C1194.69 1896.44 1121.75 1550.13 1490.71 1528.6Z" stroke="url(#paint6_linear_1_1398)" stroke-opacity="0.5"/>
<path d="M1482.21 1500.31C1769.88 1483.37 1920.59 1142.72 1959.99 974.514C2099.19 426.745 1095.35 515.463 1057.58 969.91C1019.81 1424.36 362.814 707.343 351.667 988.702C340.519 1270.06 710.236 1697.84 951.871 1778.39C1193.51 1858.94 1122.61 1521.48 1482.21 1500.31Z" stroke="url(#paint7_linear_1_1398)" stroke-opacity="0.5"/>
<path d="M1473.3 1472.3C1753.48 1455.87 1900.17 1124.13 1938.5 960.305C2073.92 426.822 1096.24 512.973 1059.59 955.588C1022.93 1398.2 382.834 699.673 372.056 973.709C361.277 1247.75 721.486 1664.49 956.852 1743.01C1192.22 1821.52 1123.07 1492.83 1473.3 1472.3Z" stroke="url(#paint8_linear_1_1398)" stroke-opacity="0.5"/>
<path d="M1466 1444.26C1738.81 1428.47 1881.38 1105.52 1918.57 946.027C2050.02 426.629 1098.1 509.813 1062.76 940.797C1027.41 1371.78 403.591 691.101 393.311 957.945C383.031 1224.79 734.1 1630.87 963.341 1707.5C1192.58 1784.12 1125 1464 1466 1444.26Z" stroke="url(#paint9_linear_1_1398)" stroke-opacity="0.5"/>
<path d="M1457.14 1416.29C1722.33 1400.9 1860.98 1086.95 1897.16 931.907C2025.03 426.996 1099.68 508.015 1065.24 926.965C1030.8 1345.91 424.524 684.354 414.483 943.745C404.442 1203.14 745.636 1597.81 968.463 1672.26C1191.29 1746.71 1125.65 1435.54 1457.14 1416.29Z" stroke="url(#paint10_linear_1_1398)" stroke-opacity="0.5"/>
<path d="M1448.59 1387.95C1706.4 1372.95 1841.24 1067.73 1876.43 916.99C2000.79 426.112 1101.17 504.969 1067.64 912.269C1034.11 1319.57 444.767 676.471 434.977 928.647C425.187 1180.82 756.851 1564.49 973.473 1636.84C1190.09 1709.2 1126.31 1406.69 1448.59 1387.95Z" stroke="url(#paint11_linear_1_1398)" stroke-opacity="0.5"/>
<path d="M1439.73 1359.99C1689.93 1345.39 1820.84 1049.16 1855.02 902.875C1975.81 426.484 1102.75 503.176 1070.13 898.442C1037.52 1293.71 465.71 669.728 456.159 914.452C446.608 1159.18 768.396 1531.44 978.604 1601.62C1188.81 1671.79 1126.98 1378.24 1439.73 1359.99Z" stroke="url(#paint12_linear_1_1398)" stroke-opacity="0.5"/>
<path d="M1431.18 1331.64C1674.01 1317.44 1801.09 1029.94 1834.29 887.956C1951.58 425.598 1104.23 500.128 1072.53 883.744C1040.83 1267.36 485.949 661.843 476.65 899.352C467.35 1136.86 779.608 1498.11 983.611 1566.2C1187.61 1634.28 1127.64 1349.38 1431.18 1331.64Z" stroke="url(#paint13_linear_1_1398)" stroke-opacity="0.5"/>
<path d="M1422.26 1303.62C1657.6 1289.94 1780.67 1011.34 1812.78 873.741C1926.3 425.669 1105.12 497.633 1074.52 869.416C1043.93 1241.2 505.961 654.168 497.03 884.354C488.099 1114.54 790.849 1464.76 988.583 1530.81C1186.32 1596.86 1128.09 1320.72 1422.26 1303.62Z" stroke="url(#paint14_linear_1_1398)" stroke-opacity="0.5"/>
<path d="M1413.77 1275.33C1641.61 1261.93 1760.95 992.143 1792.15 858.922C1902.36 425.083 1107.3 495.287 1077.42 855.218C1047.54 1215.15 527.132 647.214 518.323 870.057C509.513 1092.9 802.365 1431.73 993.75 1495.55C1185.13 1559.36 1128.96 1292.08 1413.77 1275.33Z" stroke="url(#paint15_linear_1_1398)" stroke-opacity="0.5"/>
<path d="M1404.85 1247.32C1625.2 1234.44 1740.53 973.545 1770.65 844.709C1877.08 425.157 1108.19 492.794 1079.42 840.893C1050.64 1188.99 547.146 639.542 538.705 855.062C530.264 1070.58 813.609 1398.38 998.725 1460.16C1183.84 1521.94 1129.42 1263.42 1404.85 1247.32Z" stroke="url(#paint16_linear_1_1398)" stroke-opacity="0.5"/>
<path d="M1396.84 1218.57C1609.58 1206.08 1720.98 954.189 1750.09 829.803C1852.95 424.739 1110.62 490.21 1082.76 826.275C1054.89 1162.34 568.934 632.008 560.732 840.075C552.53 1048.14 826 1364.54 1004.7 1424.14C1183.4 1483.74 1130.93 1234.18 1396.84 1218.57Z" stroke="url(#paint17_linear_1_1398)" stroke-opacity="0.5"/>
<path d="M1387.93 1190.56C1593.17 1178.58 1700.55 935.591 1728.59 815.591C1827.67 424.813 1111.5 487.718 1084.75 811.951C1058 1136.18 588.948 624.336 581.114 825.08C573.281 1025.83 837.243 1331.19 1009.68 1388.76C1182.11 1446.32 1131.38 1205.52 1387.93 1190.56Z" stroke="url(#paint18_linear_1_1398)" stroke-opacity="0.5"/>
<path d="M1379.44 1162.26C1577.18 1150.58 1680.84 916.399 1707.95 800.772C1803.73 424.227 1113.69 485.372 1087.65 797.753C1061.61 1110.13 610.119 617.383 602.407 810.783C594.695 1004.18 848.759 1298.17 1014.84 1353.5C1180.92 1408.82 1132.25 1176.88 1379.44 1162.26Z" stroke="url(#paint19_linear_1_1398)" stroke-opacity="0.5"/>
<path d="M1370.52 1134.25C1560.78 1123.08 1660.41 897.8 1686.45 786.559C1778.45 424.301 1114.58 482.879 1089.64 783.428C1064.71 1083.98 630.133 609.71 622.79 795.788C615.447 981.865 860.003 1264.82 1019.82 1318.11C1179.63 1371.41 1132.71 1148.22 1370.52 1134.25Z" stroke="url(#paint20_linear_1_1398)" stroke-opacity="0.5"/>
<path d="M1361.97 1105.9C1544.85 1095.13 1640.66 878.57 1665.71 771.638C1754.21 423.412 1116.06 479.829 1092.04 768.727C1068.02 1057.63 650.37 601.822 643.278 780.685C636.187 959.549 871.213 1231.49 1024.82 1282.69C1178.43 1333.89 1133.37 1119.37 1361.97 1105.9Z" stroke="url(#paint21_linear_1_1398)" stroke-opacity="0.5"/>
<defs>
<linearGradient id="paint0_linear_1_1398" x1="-453.591" y1="1442.61" x2="680.616" y2="2563.94" gradientUnits="userSpaceOnUse">
<stop stop-color="white"/>
<stop offset="0.523958" stop-color="#D795FF"/>
<stop offset="1" stop-color="#7BC2FE"/>
</linearGradient>
<linearGradient id="paint1_linear_1_1398" x1="306.419" y1="959.175" x2="903.229" y2="1549.3" gradientUnits="userSpaceOnUse">
<stop stop-color="white"/>
<stop offset="0.523958" stop-color="#D795FF"/>
<stop offset="1" stop-color="#7BC2FE"/>
</linearGradient>
<linearGradient id="paint2_linear_1_1398" x1="-416.712" y1="1418.23" x2="692.31" y2="2514.53" gradientUnits="userSpaceOnUse">
<stop stop-color="white"/>
<stop offset="0.523958" stop-color="#D795FF"/>
<stop offset="1" stop-color="#7BC2FE"/>
</linearGradient>
<linearGradient id="paint3_linear_1_1398" x1="-380.291" y1="1395.99" x2="702.533" y2="2466.51" gradientUnits="userSpaceOnUse">
<stop stop-color="white"/>
<stop offset="0.523958" stop-color="#D795FF"/>
<stop offset="1" stop-color="#7BC2FE"/>
</linearGradient>
<linearGradient id="paint4_linear_1_1398" x1="-344.523" y1="1372.62" x2="713.082" y2="2418.15" gradientUnits="userSpaceOnUse">
<stop stop-color="white"/>
<stop offset="0.523958" stop-color="#D795FF"/>
<stop offset="1" stop-color="#7BC2FE"/>
</linearGradient>
<linearGradient id="paint5_linear_1_1398" x1="-308.099" y1="1350.39" x2="723.308" y2="2370.12" gradientUnits="userSpaceOnUse">
<stop stop-color="white"/>
<stop offset="0.523958" stop-color="#D795FF"/>
<stop offset="1" stop-color="#7BC2FE"/>
</linearGradient>
<linearGradient id="paint6_linear_1_1398" x1="-272.328" y1="1327.02" x2="733.86" y2="2321.77" gradientUnits="userSpaceOnUse">
<stop stop-color="white"/>
<stop offset="0.523958" stop-color="#D795FF"/>
<stop offset="1" stop-color="#7BC2FE"/>
</linearGradient>
<linearGradient id="paint7_linear_1_1398" x1="-235.91" y1="1304.79" x2="744.08" y2="2273.74" gradientUnits="userSpaceOnUse">
<stop stop-color="white"/>
<stop offset="0.523958" stop-color="#D795FF"/>
<stop offset="1" stop-color="#7BC2FE"/>
</linearGradient>
<linearGradient id="paint8_linear_1_1398" x1="-200.133" y1="1281.42" x2="754.638" y2="2225.39" gradientUnits="userSpaceOnUse">
<stop stop-color="white"/>
<stop offset="0.523958" stop-color="#D795FF"/>
<stop offset="1" stop-color="#7BC2FE"/>
</linearGradient>
<linearGradient id="paint9_linear_1_1398" x1="-163.598" y1="1257.18" x2="766.898" y2="2177.01" gradientUnits="userSpaceOnUse">
<stop stop-color="white"/>
<stop offset="0.523958" stop-color="#D795FF"/>
<stop offset="1" stop-color="#7BC2FE"/>
</linearGradient>
<linearGradient id="paint10_linear_1_1398" x1="-126.93" y1="1234.71" x2="777.403" y2="2128.71" gradientUnits="userSpaceOnUse">
<stop stop-color="white"/>
<stop offset="0.523958" stop-color="#D795FF"/>
<stop offset="1" stop-color="#7BC2FE"/>
</linearGradient>
<linearGradient id="paint11_linear_1_1398" x1="-91.4122" y1="1211.57" x2="787.667" y2="2080.62" gradientUnits="userSpaceOnUse">
<stop stop-color="white"/>
<stop offset="0.523958" stop-color="#D795FF"/>
<stop offset="1" stop-color="#7BC2FE"/>
</linearGradient>
<linearGradient id="paint12_linear_1_1398" x1="-54.7352" y1="1189.11" x2="798.181" y2="2032.33" gradientUnits="userSpaceOnUse">
<stop stop-color="white"/>
<stop offset="0.523958" stop-color="#D795FF"/>
<stop offset="1" stop-color="#7BC2FE"/>
</linearGradient>
<linearGradient id="paint13_linear_1_1398" x1="-19.2204" y1="1165.97" x2="808.442" y2="1984.24" gradientUnits="userSpaceOnUse">
<stop stop-color="white"/>
<stop offset="0.523958" stop-color="#D795FF"/>
<stop offset="1" stop-color="#7BC2FE"/>
</linearGradient>
<linearGradient id="paint14_linear_1_1398" x1="16.5476" y1="1142.6" x2="818.991" y2="1935.88" gradientUnits="userSpaceOnUse">
<stop stop-color="white"/>
<stop offset="0.523958" stop-color="#D795FF"/>
<stop offset="1" stop-color="#7BC2FE"/>
</linearGradient>
<linearGradient id="paint15_linear_1_1398" x1="52.9719" y1="1120.37" x2="829.217" y2="1887.86" gradientUnits="userSpaceOnUse">
<stop stop-color="white"/>
<stop offset="0.523958" stop-color="#D795FF"/>
<stop offset="1" stop-color="#7BC2FE"/>
</linearGradient>
<linearGradient id="paint16_linear_1_1398" x1="88.7423" y1="1097" x2="839.768" y2="1839.5" gradientUnits="userSpaceOnUse">
<stop stop-color="white"/>
<stop offset="0.523958" stop-color="#D795FF"/>
<stop offset="1" stop-color="#7BC2FE"/>
</linearGradient>
<linearGradient id="paint17_linear_1_1398" x1="126.265" y1="1073.75" x2="851.128" y2="1790.42" gradientUnits="userSpaceOnUse">
<stop stop-color="white"/>
<stop offset="0.523958" stop-color="#D795FF"/>
<stop offset="1" stop-color="#7BC2FE"/>
</linearGradient>
<linearGradient id="paint18_linear_1_1398" x1="162.035" y1="1050.38" x2="861.679" y2="1742.06" gradientUnits="userSpaceOnUse">
<stop stop-color="white"/>
<stop offset="0.523958" stop-color="#D795FF"/>
<stop offset="1" stop-color="#7BC2FE"/>
</linearGradient>
<linearGradient id="paint19_linear_1_1398" x1="198.459" y1="1028.15" x2="871.905" y2="1694.04" gradientUnits="userSpaceOnUse">
<stop stop-color="white"/>
<stop offset="0.523958" stop-color="#D795FF"/>
<stop offset="1" stop-color="#7BC2FE"/>
</linearGradient>
<linearGradient id="paint20_linear_1_1398" x1="234.229" y1="1004.78" x2="882.457" y2="1645.68" gradientUnits="userSpaceOnUse">
<stop stop-color="white"/>
<stop offset="0.523958" stop-color="#D795FF"/>
<stop offset="1" stop-color="#7BC2FE"/>
</linearGradient>
<linearGradient id="paint21_linear_1_1398" x1="269.742" y1="981.636" x2="892.715" y2="1597.59" gradientUnits="userSpaceOnUse">
<stop stop-color="white"/>
<stop offset="0.523958" stop-color="#D795FF"/>
<stop offset="1" stop-color="#7BC2FE"/>
</linearGradient>
</defs>
</svg>
