<svg width="702" height="252" viewBox="0 0 702 252" fill="none" xmlns="http://www.w3.org/2000/svg">
<path d="M19.123 23.9531C43.7252 36.2898 65.5221 53.5624 83.1546 74.694C109.142 106.226 107.728 125.544 132.688 143.557C156.948 161.05 190.244 165.87 217.258 159.262C254.119 150.237 255.786 125.676 303.036 86.7751C330.824 63.9176 382.931 21.0053 444.389 25.1612C475.438 27.2634 506.306 41.205 535 54.156C570.169 70.0306 575.219 78.1854 594.199 81.9427C616.742 86.4127 651.597 83.2353 701.723 43.283" stroke="#B195FF" stroke-opacity="0.5" stroke-width="0.5" stroke-miterlimit="10"/>
<path d="M18.4336 28.4727C40.6025 39.3106 60.5877 54.1353 77.3909 72.2064C78.9977 73.9582 80.6046 75.7583 82.2235 77.6067C108.476 108.148 107.437 126.596 132.083 144.162C142.827 151.848 154.991 157.323 167.869 160.266C177.093 162.366 186.553 163.243 196.006 162.875C203.075 162.597 210.091 161.523 216.919 159.674C224.529 157.718 231.762 154.518 238.327 150.202C250.409 142.229 258.866 131.464 271.878 117.958C281.679 107.793 292.342 98.4956 303.748 90.1711C309.789 85.7011 316.845 80.3129 325 74.7918C346.819 59.9803 374.739 43.8882 408.241 38.3309C419.608 36.3912 431.159 35.7428 442.673 36.3979C444.436 36.4945 446.188 36.6395 447.916 36.8087C465.023 38.4638 481.321 42.8492 497.969 48.6723C510.425 52.9732 522.205 58.3373 533.887 63.3751C538.78 65.5256 543.154 67.4827 547.104 69.319C570.965 80.4458 577.163 86.4139 593.461 89.0234C605.844 91.0047 621.864 90.6544 642.197 83.599C658.869 77.8242 678.61 67.4223 701.722 50.2187" stroke="#B195FF" stroke-opacity="0.5" stroke-width="0.5" stroke-miterlimit="10"/>
<path d="M17.793 33.0156C39.7323 43.444 59.5945 57.7713 76.412 75.2997C78.0229 76.991 79.6337 78.7227 81.2446 80.4946C107.824 110.057 107.183 127.611 131.491 144.766C142.26 152.553 154.463 158.133 167.397 161.185C176.676 163.298 186.198 164.143 195.704 163.697C202.784 163.337 209.794 162.12 216.581 160.073C224.152 157.885 231.347 154.556 237.916 150.203C250.481 141.988 259.397 131.574 272.264 118.961C282.111 109.388 292.898 100.832 304.461 93.4214C310.502 89.4588 317.4 84.6021 325.47 79.7938C346.975 66.9757 373.192 53.5294 406.356 49.144C417.813 47.5654 429.392 47.0477 440.945 47.5976C442.733 47.6942 444.497 47.815 446.236 47.9721C463.634 49.4943 479.521 53.2516 496.507 58.4344C509.301 62.3487 520.972 67.616 532.751 72.5814C537.644 74.6352 542.066 76.5078 546.113 78.2595C570.047 88.6614 576.462 94.1463 592.699 96.0792C605.071 97.5531 620.97 96.7437 641.412 89.6037C658.108 83.7565 678.103 73.5479 701.722 57.1779" stroke="#B195FF" stroke-opacity="0.5" stroke-width="0.5" stroke-miterlimit="10"/>
<path d="M17.0322 37.4844C38.7921 47.5178 58.5733 61.3774 75.4338 78.4032C77.0406 80.0463 78.6595 81.7135 80.2664 83.4169C107.196 111.989 106.894 128.673 130.875 145.369C142.232 153.27 153.419 158.96 166.89 162.114C176.231 164.244 185.824 165.058 195.39 164.53C202.483 164.084 209.489 162.719 216.231 160.471C223.768 158.051 230.933 154.595 237.518 150.202C250.542 141.745 259.905 131.705 272.639 119.999C282.541 111.013 293.46 103.216 305.174 96.7666C311.275 93.3114 317.968 88.9863 325.942 84.8908C347.241 73.9453 371.646 63.2293 404.471 59.9916C416.019 58.7788 427.639 58.3953 439.241 58.8439C441.042 58.9284 442.866 59.0372 444.557 59.1821C461.627 60.5802 478.522 63.6185 495.009 68.2551C508.142 71.7707 519.716 76.9897 531.64 81.8222C536.533 83.8035 540.991 85.5794 545.147 87.2466C569.141 96.9116 575.786 101.889 591.951 103.182C604.322 104.172 620.136 102.868 640.651 95.643C657.383 89.7958 677.596 79.6597 701.722 64.0629" stroke="#B195FF" stroke-opacity="0.5" stroke-width="0.5" stroke-miterlimit="10"/>
<path d="M16.3311 41.9922C37.8807 51.6356 57.5575 65.0095 74.4547 81.4976C76.0616 83.0923 77.6926 84.687 79.2873 86.33C106.507 113.96 106.628 129.665 130.271 145.987C141.881 153.972 152.694 159.82 166.406 163.045C175.801 165.197 185.458 165.974 195.076 165.353C202.201 164.836 209.22 163.328 215.928 160.871C223.415 158.24 230.543 154.681 237.143 150.276C250.626 141.565 260.496 131.936 273.049 121.027C281.905 113.343 292.379 106.626 305.923 100.103C312.072 97.1306 318.62 93.325 326.461 89.9544C347.676 80.8331 370.147 72.9199 402.574 70.8299C414.195 69.9728 425.853 69.7187 437.501 70.0688C439.326 70.1413 441.126 70.2379 442.853 70.3587C459.954 71.4799 476.929 74.0504 493.595 78.0423C507.09 81.1593 518.495 86.3421 530.54 91.0054C535.373 92.9142 539.952 94.6298 544.204 96.1882C568.246 105.177 575.121 109.586 591.237 110.227C603.609 110.722 619.315 108.946 639.913 101.649C656.646 95.7171 677.1 85.7622 701.722 70.9628" stroke="#B195FF" stroke-opacity="0.5" stroke-width="0.5" stroke-miterlimit="10"/>
<path d="M15.6426 46.5C36.977 55.7598 56.5446 68.6479 73.4763 84.5919C75.0832 86.1262 76.7141 87.6484 78.3089 89.219C105.855 115.797 106.35 130.718 129.643 146.58C141.507 154.663 151.945 160.667 165.887 163.965C175.344 166.135 185.073 166.877 194.75 166.164C201.877 165.572 208.876 163.923 215.518 161.271C222.96 158.418 230.057 154.734 236.672 150.289C250.626 141.349 261.016 132.167 273.363 122.056C282.485 114.614 293.189 108.766 306.575 103.426C312.797 100.938 319.2 97.6758 326.872 94.9696C348.172 87.6001 368.577 82.5622 400.665 81.5957C411.816 81.2575 424.152 80.8346 435.762 81.2333C437.61 81.2937 439.386 81.3783 441.15 81.4749C458.256 82.3185 475.276 84.4182 492.073 87.7571C505.907 90.4754 517.227 95.622 529.405 100.189C534.298 102.025 538.853 103.608 543.214 105.106C567.304 113.478 574.444 117.586 590.452 117.332C602.824 117.138 618.433 115.073 639.104 107.667C655.849 101.626 676.557 91.8768 701.674 77.8868" stroke="#B195FF" stroke-opacity="0.5" stroke-width="0.5" stroke-miterlimit="10"/>
<path d="M14.9424 50.9922C36.0655 59.8778 55.5272 72.2841 72.4983 87.6826C74.1051 89.1565 75.7482 90.6184 77.3308 92.1164C105.215 117.728 106.085 131.731 129.027 147.182C141.109 155.337 151.197 161.511 165.392 164.893C174.894 167.069 184.673 167.774 194.388 166.983C201.538 166.309 208.538 164.516 215.131 161.668C222.513 158.58 229.574 154.777 236.214 150.311C250.627 141.118 261.585 132.335 273.666 123.068C283.065 115.82 294.011 110.915 307.216 106.747C313.535 104.741 320.409 103.581 327.271 100.09C349.537 99.1597 367.055 90.4251 398.697 92.4789C409.872 93.2158 422.4 92.1889 433.962 92.4789C435.835 92.5393 437.647 92.5997 439.387 92.6842C458.016 93.5662 472.272 94.5931 490.539 97.5167C504.711 99.8242 515.91 104.947 528.221 109.368C533.054 111.132 537.705 112.63 542.175 114.044C566.278 121.679 573.672 124.917 589.655 124.313C602.039 123.817 617.551 121.087 638.295 113.621C655.064 107.58 675.989 97.9154 701.626 84.7348" stroke="#B195FF" stroke-opacity="0.5" stroke-width="0.5" stroke-miterlimit="10"/>
<path d="M14.2412 55.5C35.1506 64.0108 54.5054 75.9271 71.5192 90.7649C73.1381 92.1905 74.7812 93.5798 76.3518 95.0054C104.634 119.627 105.867 132.735 128.459 147.788C140.842 156.027 150.507 162.358 164.933 165.825C174.516 168.028 184.389 168.692 194.182 167.794C202.143 167.13 208.68 164.738 214.889 162.056C222.216 158.74 229.252 154.816 235.923 150.325C250.795 140.89 262.369 132.566 274.173 124.085C283.838 117.114 295.074 113.091 308.001 110.058C314.452 108.548 321.17 108.198 327.826 105.154C350.092 106.869 365.557 102.073 396.884 103.293C408.12 103.74 420.793 103.474 432.319 103.728C434.203 103.728 436.04 103.813 437.767 103.873C456.711 104.586 470.556 104.948 489.15 107.376C503.647 109.285 514.738 114.371 527.182 118.66C532.014 120.352 536.702 121.753 541.281 123.082C565.444 130.065 573.067 132.747 588.99 131.454C601.374 130.476 616.778 127.274 637.606 119.723C654.387 113.683 675.554 104.115 701.698 91.7435" stroke="#B195FF" stroke-opacity="0.5" stroke-width="0.5" stroke-miterlimit="10"/>
<path d="M13.5527 59.9922C34.2388 68.1413 53.4802 79.5628 70.5408 93.8194C72.1597 95.1967 73.8149 96.5256 75.4458 97.8666C104.018 121.497 105.649 133.699 127.855 148.342C140.492 156.666 149.783 163.165 164.45 166.693C174.079 168.92 184.008 169.557 193.844 168.578C201.914 167.841 208.341 165.255 214.515 162.416C222.138 158.913 228.409 154.805 235.476 150.335C250.82 140.67 264.701 134.859 274.523 125.098C285.65 120.35 296.053 111.289 308.726 113.379C315.322 114.466 321.895 112.799 328.322 110.214C350.6 114.563 364.095 111.82 395.024 114.116C406.308 114.949 419.186 114.756 430.615 114.937C432.536 114.937 434.373 114.937 436.112 115.046C455.346 115.59 468.793 115.251 487.7 117.16C502.572 118.646 513.518 123.708 526.083 127.864C530.915 129.483 535.651 130.8 540.327 132.032C564.49 138.375 572.415 140.416 588.278 138.52C600.673 137.034 615.981 133.361 636.869 125.726C653.675 119.613 675.022 110.214 701.722 98.6519" stroke="#B195FF" stroke-opacity="0.5" stroke-width="0.5" stroke-miterlimit="10"/>
<path d="M12.8525 64.4844C33.3272 72.2888 52.4602 83.2369 69.5627 96.9344C71.1816 98.2512 72.8368 99.4593 74.4799 100.776C103.475 123.416 105.372 134.712 127.251 148.956C140.154 157.352 149.058 164.021 163.955 167.633C173.645 169.871 183.642 170.471 193.53 169.409C201.709 168.6 208.028 165.785 214.177 162.825C221.656 159.201 227.853 154.9 235.066 150.345C250.869 140.414 265.475 135.292 274.935 126.098C286.448 121.87 297.503 113.389 309.476 116.687C316.024 118.487 322.632 117.412 328.806 115.274C351.096 122.256 362.634 121.592 393.151 124.938C404.484 126.147 417.459 126.05 428.912 126.147H434.434C453.981 126.509 467.053 125.506 486.251 126.871C501.473 127.947 512.286 132.997 524.984 137.008C529.816 138.554 534.589 139.774 539.373 140.91C563.536 146.636 571.751 148.05 587.554 145.525C599.949 143.531 615.16 139.388 636.121 131.68C652.938 125.506 674.576 116.264 701.735 105.5" stroke="#B195FF" stroke-opacity="0.5" stroke-width="0.5" stroke-miterlimit="10"/>
<path d="M12.1504 68.9688C32.3891 76.4414 51.3946 86.903 68.5344 100.005C70.1654 101.213 71.8205 102.421 73.4636 103.63C102.773 125.267 105.081 135.657 126.622 149.538C139.791 157.995 148.368 164.845 163.446 168.53C173.19 170.796 183.253 171.364 193.19 170.209C201.49 169.327 207.688 166.355 213.801 163.202C221.135 159.384 227.272 154.974 234.63 150.347C250.903 140.175 266.223 135.717 275.247 127.103C287.16 123.382 298.202 122.053 310.126 119.987C316.965 121.292 323.271 122.005 329.239 120.326C351.529 129.991 361.086 131.368 391.217 135.729C402.598 137.384 415.742 137.469 427.147 137.336C429.104 137.336 430.977 137.336 432.705 137.336C452.566 137.082 465.204 135.826 484.739 136.672C500.324 137.336 510.992 142.362 523.835 146.24C528.667 147.702 533.5 148.849 538.332 149.864C562.495 154.974 570.952 155.736 586.731 152.582C599.138 150.094 614.24 145.479 635.298 137.686C652.127 131.465 673.958 122.367 701.661 112.4" stroke="#B195FF" stroke-opacity="0.5" stroke-width="0.5" stroke-miterlimit="10"/>
<path d="M11.4619 73.4648C31.501 80.6016 50.412 90.5777 67.6163 103.088C69.2353 104.296 70.9025 105.419 72.5456 106.555C102.242 127.178 104.888 136.673 126.042 150.132C139.477 158.685 147.607 165.692 162.975 169.462C172.803 171.754 182.96 172.282 192.973 171.02C201.43 170.066 207.531 166.913 213.512 163.602C220.76 159.628 226.801 155.073 234.279 150.313C251 139.899 267.056 136.106 275.67 128.072C287.969 124.87 299.181 124.447 310.888 123.239C317.81 125.172 324.02 126.549 329.771 125.317C352.061 137.58 359.648 141.107 389.381 146.483C400.81 148.549 414.111 148.694 425.48 148.489C427.461 148.489 429.334 148.489 431.074 148.489C451.225 148.042 463.476 146.073 483.326 146.423C499.249 146.677 509.796 151.69 522.772 155.423C527.604 156.825 532.437 157.84 537.451 158.818C561.613 163.337 570.409 163.433 586.078 159.652C598.486 156.656 613.491 151.582 634.621 143.705C651.463 137.435 673.584 128.482 701.746 119.325" stroke="#B195FF" stroke-opacity="0.5" stroke-width="0.5" stroke-miterlimit="10"/>
<path d="M10.7617 77.9453C30.5856 84.764 49.3849 94.259 66.6383 106.167C68.2693 107.375 69.9365 108.366 71.5796 109.441C101.674 129.037 104.658 137.638 125.439 150.722C139.139 159.336 146.883 166.512 162.492 170.366C172.356 172.673 182.558 173.169 192.599 171.828C201.056 170.789 207.193 167.455 213.138 163.975C220.193 159.843 226.185 155.144 233.845 150.372C251.037 139.704 267.806 136.587 276.021 129.121C288.719 126.427 300.051 126.838 311.577 126.62C318.572 129.169 324.697 131.223 330.219 130.438C352.521 145.346 358.127 150.976 387.472 157.367C398.95 159.856 412.408 159.88 423.717 159.783C425.722 159.783 427.607 159.783 429.347 159.783C449.812 159.143 461.664 157.016 481.828 156.328C498.09 155.772 508.516 161.16 521.624 164.785C526.505 166.101 531.454 167.149 536.448 167.926C560.611 171.864 569.696 171.284 585.306 166.875C597.725 163.371 612.622 157.838 633.825 149.876C650.739 143.558 673.041 134.739 701.71 126.391" stroke="#B195FF" stroke-opacity="0.5" stroke-width="0.5" stroke-miterlimit="10"/>
<path d="M10.0605 79.8398C29.6718 86.3679 48.3589 95.3986 65.6592 106.708C67.2902 107.796 68.9695 108.786 70.6247 109.789C101.106 128.358 104.453 136.066 124.834 148.763C138.8 157.461 146.158 164.807 161.996 168.733C171.92 171.063 182.191 171.526 192.285 170.098C200.911 168.975 206.915 165.471 212.823 161.823C219.697 157.449 225.593 152.617 233.434 147.784C251.085 136.911 268.591 134.41 276.395 127.536C289.48 125.35 300.945 126.63 312.289 127.331C319.357 130.508 325.386 133.226 330.689 132.9C353.004 150.442 356.64 158.271 385.575 165.519C397.113 168.431 410.729 168.491 422.013 168.31L427.667 168.201C448.447 167.839 459.888 164.094 480.366 163.369C497.002 162.765 507.271 167.779 520.512 171.222C525.447 172.47 530.449 173.434 535.493 174.109C559.596 177.468 569.031 176.187 584.568 171.161C597 167.15 611.8 161.158 633.075 153.112C649.989 146.745 672.545 138.071 701.722 130.532" stroke="#B195FF" stroke-opacity="0.5" stroke-width="0.5" stroke-miterlimit="10"/>
<path d="M9.33691 80.6016C28.7285 86.7979 47.2996 95.3166 64.6456 105.972C66.2887 107.011 67.968 107.929 69.6232 108.859C100.552 126.425 104.188 133.287 124.231 145.562C138.475 154.321 145.434 161.847 161.514 165.858C171.502 168.192 181.843 168.602 191.984 167.066C200.707 165.858 206.639 162.234 212.462 158.368C219.215 153.934 225.075 148.933 233 144.016C251.122 132.865 269.341 131.065 276.747 124.77C290.23 123.091 302.251 123.357 312.991 126.872C320.687 129.397 326.075 134.121 331.113 134.121C353.428 154.297 355.083 164.324 383.631 172.551C395.205 175.91 409.002 175.994 420.226 175.741C422.28 175.741 424.189 175.644 425.916 175.596C447.01 175.04 458.041 170.606 478.845 169.35C495.819 168.323 505.968 173.336 519.342 176.598C524.323 177.794 529.375 178.674 534.468 179.232C558.558 182.035 568.296 180.042 583.772 174.4C596.204 169.869 610.907 163.418 632.255 155.299C649.169 148.884 671.979 140.355 701.663 133.553" stroke="#B195FF" stroke-opacity="0.5" stroke-width="0.5" stroke-miterlimit="10"/>
<path d="M8.67188 81.3398C27.8517 87.2426 46.3103 95.2742 63.7027 105.285C65.3579 106.263 67.0493 107.109 68.6924 107.979C100.007 124.457 103.97 130.401 123.627 142.362C138.124 151.181 144.697 158.889 161.079 162.972C171.118 165.375 181.532 165.786 191.73 164.18C200.573 162.888 206.421 159.046 212.171 155.071C218.792 150.492 224.579 145.322 232.71 140.332C251.279 128.94 270.222 127.816 277.242 122.09C291.099 120.881 303.362 122.222 313.8 126.499C321.641 129.713 326.872 134.956 331.729 135.548C354.043 158.369 353.717 170.583 381.891 179.741C393.513 183.546 407.443 183.643 418.655 183.365L424.381 183.172C445.778 182.435 456.409 177.3 477.54 175.537C494.876 174.075 504.88 179.161 518.399 182.242C523.428 183.395 528.53 184.202 533.67 184.658C557.736 186.917 567.788 184.199 583.204 177.941C595.635 172.903 610.23 165.992 631.662 157.789C654.349 148.763 677.795 141.777 701.722 136.913" stroke="#B195FF" stroke-opacity="0.5" stroke-width="0.5" stroke-miterlimit="10"/>
<path d="M7.9707 81.5781C26.9428 87.216 45.2891 94.7778 62.7237 104.146C64.3909 105.064 66.0823 105.849 67.7254 106.647C99.4633 122.074 103.74 127.184 123.022 138.734C137.81 147.614 143.971 155.503 160.535 159.671C170.638 162.084 181.124 162.438 191.367 160.71C200.307 159.332 206.082 155.321 211.772 151.178C218.248 146.454 223.962 141.126 232.214 136.064C251.254 124.43 270.874 123.983 277.531 118.824C291.787 118.172 304.243 120.516 314.428 125.529C322.402 129.456 327.488 135.303 332.115 136.33C354.442 161.785 352.122 176.198 379.909 186.285C391.58 190.538 405.679 190.635 416.842 190.26C418.932 190.188 420.877 190.091 422.605 190.019C444.352 189.088 454.536 183.277 475.969 180.994C493.644 179.109 503.526 184.147 517.178 187.131C522.258 188.216 527.41 188.927 532.594 189.257C556.648 190.985 567.002 187.518 582.358 180.656C594.789 175.098 609.287 167.741 630.792 159.441C653.679 150.366 677.451 143.706 701.722 139.568" stroke="#B195FF" stroke-opacity="0.5" stroke-width="0.5" stroke-miterlimit="10"/>
<path d="M7.27051 80.8906C26.0384 86.2588 44.2734 93.3399 61.7456 102.045C63.4129 102.902 65.1163 103.627 66.7594 104.364C98.9322 118.705 103.571 122.909 122.419 134.144C137.484 143.084 143.247 151.167 160.052 155.395C170.211 157.837 180.764 158.157 191.053 156.337C200.102 154.864 205.804 150.696 211.422 146.383C217.765 141.55 223.407 136.029 231.804 130.895C251.303 119.019 271.672 119.224 277.906 114.657C292.549 114.512 305.174 117.919 315.141 123.67C323.212 128.333 328.189 134.736 332.599 136.21C354.925 164.311 350.6 180.91 378.025 191.916C389.72 196.628 404 196.749 415.127 196.29C417.229 196.205 419.186 196.097 420.914 196.012C442.939 194.9 452.724 188.377 474.471 185.586C492.496 183.266 502.258 188.316 516.019 191.155C521.155 192.176 526.361 192.802 531.592 193.028C555.634 194.236 566.278 190.008 581.573 182.541C594.005 176.501 608.418 168.648 629.995 160.276C653.049 151.109 677.117 144.737 701.686 141.296" stroke="#B195FF" stroke-opacity="0.5" stroke-width="0.5" stroke-miterlimit="10"/>
<path d="M6.58105 80.2031C25.1434 85.3234 43.2635 91.9289 60.7662 99.9558C62.4455 100.753 64.149 101.393 65.7921 102.07C98.4119 115.359 103.244 118.682 121.814 129.555C137.145 138.543 142.521 146.819 159.556 151.132C169.774 153.609 180.402 153.893 190.738 151.965C199.896 150.383 205.526 146.082 211.083 141.587C217.293 136.574 222.851 130.932 231.392 125.725C251.363 113.644 272.469 114.465 278.28 110.479C291.617 110.637 304.638 114.561 315.841 121.799C323.996 127.211 328.889 134.158 333.069 136.091C355.408 166.825 349.065 185.623 376.14 197.547C387.859 202.73 402.32 202.827 413.399 202.319C415.537 202.223 417.494 202.102 419.234 201.993C441.548 200.664 450.972 193.536 473.033 190.178C491.384 187.435 501.049 192.485 514.943 195.179C519.776 196.11 524.874 196.255 530.649 196.786C554.594 198.997 565.625 192.497 580.859 184.415C593.291 177.819 607.607 169.555 629.257 161.099C652.5 151.841 676.881 145.746 701.746 142.977" stroke="#B195FF" stroke-opacity="0.5" stroke-width="0.5" stroke-miterlimit="10"/>
<path d="M5.88086 79.5156C24.2465 84.3944 42.2575 90.5217 59.7881 97.8548C61.4795 98.5797 63.183 99.1717 64.8382 99.7757C97.8688 111.857 103.076 114.454 121.21 124.965C136.831 134.014 141.748 142.471 159.073 146.868C169.368 149.377 180.085 149.625 190.485 147.593C199.739 145.902 205.297 141.456 210.794 136.792C216.834 131.634 222.344 125.835 231.03 120.555C251.472 108.184 273.315 109.682 278.703 106.312C292.397 107.03 305.569 111.793 316.554 120C324.758 126.149 329.59 133.651 333.541 136.031C355.892 169.399 347.519 190.396 374.243 203.251C385.998 208.893 400.629 208.977 411.696 208.409C413.846 208.301 415.827 208.156 417.555 208.047C440.184 206.513 449.196 198.648 471.583 194.83C490.297 191.653 499.781 196.739 513.868 199.264C519.128 199.996 524.423 200.448 529.731 200.617C553.713 202.176 564.985 195.048 580.171 186.361C592.591 179.246 606.823 170.535 628.497 161.994C651.913 152.664 676.588 146.874 701.71 144.814" stroke="#B195FF" stroke-opacity="0.5" stroke-width="0.5" stroke-miterlimit="10"/>
<path d="M5.18066 78.8242C23.3579 83.4737 41.2655 89.1201 58.8222 95.7378C60.5136 96.4023 62.217 96.9459 63.8722 97.4654C97.3377 108.483 102.859 110.199 120.655 120.42C136.506 129.456 141.024 138.119 158.578 142.589C168.917 145.134 179.692 145.348 190.123 143.217C199.486 141.417 204.983 136.826 210.396 131.993C216.34 126.702 221.74 120.734 230.584 115.382C251.472 102.769 274.077 104.968 279.03 102.093C293.119 103.343 306.476 108.921 317.268 118.064C325.495 124.974 330.28 133.008 334.013 135.835C356.363 171.849 345.961 195.117 372.359 208.817C384.138 214.931 398.938 215.003 409.956 214.375C412.131 214.254 414.125 214.097 415.852 213.964C438.807 212.224 447.397 203.683 470.11 199.358C489.174 195.734 498.525 200.856 512.721 203.224C518.03 203.916 523.376 204.283 528.729 204.323C552.747 205.229 564.26 197.473 579.386 188.171C591.818 180.548 605.965 171.378 627.712 162.8C651.316 153.388 676.299 147.891 701.674 146.527" stroke="#B195FF" stroke-opacity="0.5" stroke-width="0.5" stroke-miterlimit="10"/>
<path d="M4.50391 78.1406C25.1994 83.3959 43.7685 88.7479 57.8554 93.6528C59.571 94.2569 61.2745 94.716 62.9176 95.1992C96.8301 105.057 102.653 105.976 120.014 115.737C136.191 124.871 140.359 133.726 158.107 138.281C168.502 140.857 179.347 141.034 189.821 138.8C199.293 136.879 204.729 132.168 210.069 127.154C215.868 121.717 221.196 115.592 230.185 110.168C251.545 97.3134 274.886 100.177 279.417 97.9296C293.891 99.725 307.411 106.11 317.993 116.148C326.232 123.819 331.512 131.914 334.508 135.671C362.295 170.622 344.402 199.834 370.486 214.404C382.278 221 397.283 221.049 408.253 220.36C410.452 220.227 412.445 220.046 414.185 219.901C437.417 217.956 445.596 208.738 468.648 203.918C488.063 199.846 497.281 204.993 511.621 207.192C516.967 207.984 522.375 208.271 527.774 208.049C551.804 207.228 563.584 199.907 578.661 190.012C591.081 181.857 605.119 172.241 626.987 163.542C650.793 154.051 676.091 148.845 701.71 148.163" stroke="#B195FF" stroke-opacity="0.5" stroke-width="0.5" stroke-miterlimit="10"/>
<path d="M3.79102 77.4492C24.716 82.5475 43.1643 87.3799 56.8647 91.5479C58.5923 92.0795 60.2958 92.4782 61.9389 92.901C96.3226 101.599 102.424 101.732 119.398 111.18C135.865 120.361 139.622 129.434 157.6 134.062C168.059 136.671 178.983 136.812 189.507 134.472C199.075 132.418 204.439 127.586 209.707 122.391C215.385 116.81 220.58 110.527 229.762 105.03C251.581 91.9224 275.587 95.4622 279.791 93.7829C296.391 96.1992 309.439 104.849 318.693 114.321C326.921 122.778 332.128 131.512 334.967 135.584C361.848 174.086 342.82 204.628 368.577 220.079C380.381 227.147 395.591 227.171 406.513 226.422C408.736 226.265 410.754 226.084 412.481 225.927C436.028 223.764 443.808 213.845 467.174 208.542C486.927 204.036 496.012 209.218 510.486 211.248C515.886 211.98 521.345 212.178 526.783 211.84C550.825 210.547 562.883 202.429 577.912 191.918C590.32 183.244 604.274 173.18 626.238 164.397C643.26 157.596 668.003 150.214 701.722 149.9" stroke="#B195FF" stroke-opacity="0.5" stroke-width="0.5" stroke-miterlimit="10"/>
<path d="M3.08984 76.7617C24.2323 81.7392 42.5598 85.9917 55.8856 89.459C57.6254 89.906 59.3288 90.2443 60.9719 90.6671C95.7543 98.1212 102.206 97.4809 118.794 106.59C135.381 115.699 138.897 125.086 157.116 129.786C167.631 132.44 178.627 132.548 189.192 130.1C198.857 127.901 204.173 122.972 209.368 117.608C214.913 111.894 220.072 105.442 229.351 99.873C251.641 86.5837 276.372 90.7275 280.165 89.6281C297.164 92.5518 310.224 102.217 319.406 112.462C327.609 121.619 332.695 131.054 335.438 135.416C361.28 177.398 341.225 209.352 366.692 225.662C378.496 233.225 393.9 233.213 404.797 232.403C407.032 232.234 409.062 232.029 410.838 231.86C434.686 229.443 442.068 218.909 465.748 213.085C485.851 208.144 494.816 213.363 509.422 215.224C514.877 215.898 520.387 216.012 525.865 215.562C549.919 213.786 562.23 204.87 577.223 193.756C589.619 184.562 603.488 174.051 625.549 165.184C642.596 158.334 667.568 151.085 701.794 151.604" stroke="#B195FF" stroke-opacity="0.5" stroke-width="0.5" stroke-miterlimit="10"/>
<path d="M2.40137 76.0703C23.7492 80.9028 41.9559 84.5996 54.9072 87.3783C56.659 87.7528 58.3625 88.0427 60.0056 88.3327C95.2108 94.627 101.988 93.2256 118.19 102.009C135.237 111.239 138.16 120.734 156.621 125.518C167.195 128.219 178.27 128.29 188.878 125.724C198.64 123.368 203.907 118.342 209.03 112.821C214.442 106.95 219.517 100.353 228.952 94.6994C251.689 81.1082 277.338 84.213 280.54 85.4574C297.067 91.8483 310.997 99.5561 320.118 110.598C328.286 120.493 333.323 130.58 335.921 135.353C360.627 180.717 339.618 214.194 364.808 231.361C376.611 239.407 392.22 239.347 403.069 238.489C405.341 238.308 407.37 238.091 409.11 237.909C433.273 235.324 440.232 224.064 464.238 217.734C484.679 212.346 493.511 217.613 508.262 219.304C513.773 219.92 519.334 219.948 524.85 219.389C548.916 217.142 561.493 207.417 576.426 195.698C588.821 186.033 602.606 175.015 624.751 166.063C641.81 159.164 667.036 152.073 701.758 153.39" stroke="#B195FF" stroke-opacity="0.5" stroke-width="0.5" stroke-miterlimit="10"/>
<path d="M1.70117 75.3828C23.2665 80.1307 41.3403 83.1752 53.9291 85.2531C55.693 85.5431 57.3965 85.7847 59.0517 86.0142C94.6677 91.1125 101.784 88.9741 117.586 97.4068C134.983 106.709 137.4 116.374 156.138 121.207C166.774 123.942 177.925 123.975 188.577 121.303C198.411 118.778 203.642 113.68 208.68 108.014C213.972 101.973 218.961 95.2442 228.542 89.5298C251.75 75.6969 277.943 80.9281 280.915 81.2784C299.037 83.4409 311.759 96.8873 320.783 108.727C326.888 116.986 332.104 125.867 336.344 135.221C359.903 183.884 337.963 218.967 362.923 236.992C374.715 245.522 390.542 245.449 401.354 244.519C403.638 244.326 405.692 244.084 407.395 243.891C431.848 241.052 438.408 229.128 462.752 222.326C483.52 216.479 492.243 221.831 507.127 223.329C512.694 223.885 518.306 223.824 523.86 223.147C547.95 220.429 560.757 209.858 575.665 197.572C588.037 187.315 601.737 175.922 623.991 166.898C641.074 159.951 666.517 152.992 701.759 155.118" stroke="#B195FF" stroke-opacity="0.5" stroke-width="0.5" stroke-miterlimit="10"/>
<path d="M1 74.6953C22.7466 79.2378 40.7116 81.7265 52.9501 83.1521C93.447 87.8638 100.865 84.3602 116.982 92.817C134.62 102.083 136.711 112.038 155.642 116.979C166.338 119.761 177.567 119.761 188.262 116.979C208.535 111.422 209.09 95.6924 228.131 84.3602C251.798 70.2736 278.703 76.4712 281.289 77.1115C315.745 85.5683 331.813 123.394 336.863 135.101C359.25 186.953 336.38 223.74 361.026 242.623C375.331 253.581 395.917 251.08 405.728 249.872C430.482 246.852 436.644 234.239 461.302 226.918C489.089 218.654 495.215 230.542 522.917 226.918C567.111 221.083 574.203 187.775 623.193 167.72C640.288 160.725 665.973 153.911 701.722 156.847" stroke="#B195FF" stroke-opacity="0.5" stroke-width="0.5" stroke-miterlimit="10"/>
<path d="M1.65234 76.2031C23.0123 80.7456 40.6753 83.4518 52.9138 84.9499C92.3355 89.9273 100.031 86.6412 116.051 95.1101C133.364 104.292 135.672 113.957 154.132 118.934C164.604 121.701 175.596 121.842 186.136 119.345C206.142 114.621 206.916 99.2781 225.666 88.3809C248.826 74.8259 274.922 80.4678 277.942 80.9631C306.201 85.5419 321.786 113.389 329.457 128.249C331.028 131.281 332.164 133.891 333.082 135.775C356.037 184.861 334.362 220.21 358.646 238.042C373.144 248.662 393.9 245.992 404.121 244.844C413.487 243.816 422.566 240.985 430.857 236.508C439.314 232.267 447.227 227.483 460.239 224.306C464.226 223.339 467.778 222.808 470.967 222.349C490.297 219.558 497.752 226.432 521.045 222.288C530.056 220.706 538.733 217.606 546.705 213.119C568.343 201.038 581.874 179.292 615.376 163.417C617.341 162.483 619.395 161.573 621.538 160.687C638.79 153.51 664.862 146.37 701.154 149.113" stroke="#B195FF" stroke-opacity="0.5" stroke-width="0.5" stroke-miterlimit="10"/>
<path d="M2.30469 77.7148C23.2297 82.2574 40.639 85.0723 52.8896 86.7395C91.2118 91.9706 99.1493 88.9261 115.121 97.4192C132.12 106.408 134.632 115.988 152.573 120.881C162.83 123.64 173.595 123.93 183.985 121.726C203.69 117.776 204.741 102.928 223.189 92.3934C245.854 79.4545 271.261 83.6225 274.572 84.8186C300.716 94.1815 317.678 115.323 325.579 129.326C327.186 132.177 328.298 134.677 329.204 136.441C352.69 182.821 332.297 216.648 356.194 233.465C370.812 243.734 391.798 240.907 402.429 239.808C411.869 238.839 421.07 236.243 429.624 232.136C438.214 228.306 446.248 224.163 459.103 221.71C463.102 220.937 466.678 220.647 469.868 220.188C489.138 217.397 496.266 222.822 519.087 217.651C527.995 215.598 536.524 212.157 544.362 207.454C565.19 195.373 579.398 172.866 613.576 156.46C615.57 155.517 617.648 154.575 619.81 153.657C637.207 146.3 663.666 138.833 700.514 141.37" stroke="#B195FF" stroke-opacity="0.5" stroke-width="0.5" stroke-miterlimit="10"/>
<path d="M2.95703 79.2266C23.4471 83.757 40.5906 86.741 52.8291 88.5895C90.064 94.0381 98.2673 91.2715 114.166 99.7645C130.839 108.608 133.569 118.007 151.075 122.876C161.111 125.611 171.639 126.024 181.859 124.084C201.189 120.882 202.578 106.53 220.725 96.406C242.894 84.0349 267.492 87.2001 271.225 88.6499C291.985 96.9702 309.633 111.557 321.713 130.378C323.356 133.048 324.456 135.44 325.338 137.095C349.331 180.672 330.243 213.11 353.717 228.912C368.504 238.843 389.683 235.835 400.726 234.808C410.242 233.879 419.562 231.513 428.368 227.788C437.115 224.37 445.282 220.878 457.943 219.126C461.978 218.571 465.567 218.51 468.756 218.051C488.002 215.248 494.743 219.259 517.082 213.037C525.869 210.503 534.249 206.728 541.969 201.826C561.988 189.66 576.933 166.513 611.715 149.527C613.721 148.56 615.823 147.598 618.022 146.639C635.564 139.113 662.421 131.32 699.813 133.664" stroke="#B195FF" stroke-opacity="0.5" stroke-width="0.5" stroke-miterlimit="10"/>
<path d="M3.60938 80.7227C23.6645 85.2652 40.5543 88.4063 52.817 90.3876C88.9646 96.0536 97.4457 93.5649 113.224 102.07C129.558 110.781 132.554 119.974 149.529 124.831C159.354 127.58 169.661 128.157 179.732 126.522C198.785 124.106 200.416 110.213 218.272 100.487C239.946 88.5875 263.444 93.3233 267.878 92.5139C293.43 97.6725 309.499 119.092 317.859 131.463C319.538 133.94 320.614 136.211 321.556 137.77C346.081 178.58 328.297 209.544 351.337 224.307C366.318 233.9 387.653 230.722 399.119 229.744C408.719 228.86 418.162 226.724 427.208 223.389C436.124 220.381 444.388 217.554 456.892 216.491C460.951 216.14 464.552 216.322 467.765 215.862C486.987 213.06 493.342 215.609 515.269 208.384C524.56 205.316 532.183 200.918 539.77 196.134C559.004 183.944 574.613 160.023 610.06 142.542C612.074 141.551 614.2 140.565 616.439 139.582C634.138 131.862 661.382 123.744 699.318 125.894" stroke="#B195FF" stroke-opacity="0.5" stroke-width="0.5" stroke-miterlimit="10"/>
<path d="M4.25 82.2344C23.834 86.7648 40.5063 90.063 52.8294 92.1168C87.8655 97.9882 96.5641 95.8378 112.342 104.295C128.338 112.896 131.516 121.873 148.067 126.705C157.664 129.453 167.729 130.169 177.618 128.807C196.308 127.019 198.265 113.742 215.82 104.427C236.986 93.2041 259.627 97.517 264.556 96.3452C289.347 101.033 305.403 120.967 314.017 132.516C315.733 134.812 316.796 136.974 317.763 138.424C342.808 176.443 326.365 205.945 348.945 219.706C364.119 228.96 385.624 225.601 397.488 224.695C409.569 223.777 418.087 221.276 426.036 219.005C435.122 216.408 443.579 212.638 455.817 213.859C459.435 214.248 463.087 214.188 466.69 213.677C485.9 210.874 491.844 212.022 513.349 203.722C522.349 200.255 529.84 195.483 537.512 190.433C555.96 178.255 572.234 153.598 608.333 135.549C610.371 134.534 612.521 133.519 614.784 132.504C632.629 124.615 660.259 116.17 698.75 118.115" stroke="#B195FF" stroke-opacity="0.5" stroke-width="0.5" stroke-miterlimit="10"/>
<path d="M4.90234 83.7578C24.0997 88.2882 40.47 91.7435 52.7448 93.9301C86.7298 99.9707 95.7063 98.1344 111.412 106.615C127.118 115.096 130.489 123.843 146.545 128.688C160.535 132.904 172.194 131.998 175.54 131.213C193.385 126.984 196.139 117.38 213.403 108.476C234.063 97.8203 255.87 101.747 261.258 100.224C285.276 104.453 301.308 122.852 310.212 133.605C311.952 135.719 313.003 137.773 313.981 139.126C339.546 174.354 324.48 202.358 346.601 215.165C361.993 224.08 383.631 220.541 395.917 219.695C408.204 218.849 416.818 216.578 424.913 214.657C434.155 212.47 442.902 209.196 454.79 211.286C458.378 211.95 462.049 212.036 465.663 211.54C484.849 208.737 490.394 208.484 511.464 199.121C520.187 195.255 527.508 190.096 535.192 184.829C552.867 172.748 569.817 147.256 606.557 128.639C608.611 127.6 610.785 126.561 613.081 125.522C631.082 117.452 659.099 108.681 698.134 110.421" stroke="#B195FF" stroke-opacity="0.5" stroke-width="0.5" stroke-miterlimit="10"/>
<path d="M5.55469 85.2266C24.3171 89.7932 40.4217 93.4176 52.7085 95.6888C85.6062 101.874 94.8484 100.388 110.482 108.869C125.825 117.205 129.45 125.783 145.035 130.615C158.638 134.832 169.971 134.312 173.366 133.563C190.859 129.673 193.904 120.975 210.89 112.482C231.042 102.382 251.967 105.946 257.863 104.025C281.12 107.782 297.091 124.563 306.297 134.626C307.656 136.264 308.931 137.969 310.115 139.737C336.175 172.175 322.523 198.669 344.112 210.532C359.734 219.098 381.504 215.365 394.202 214.604C406.416 213.855 415.393 211.789 423.644 210.23C433.056 208.454 442.093 205.76 453.618 208.623C457.186 209.568 460.905 209.806 464.564 209.324C483.737 206.509 488.872 204.878 509.519 194.428C517.976 190.163 525.104 184.642 532.848 179.109C549.762 167.028 567.377 140.812 604.757 121.627C606.827 120.564 609.025 119.501 611.353 118.438C629.475 110.186 657.903 101.089 697.494 102.635" stroke="#B195FF" stroke-opacity="0.5" stroke-width="0.5" stroke-miterlimit="10"/>
<path d="M6.20703 86.7148C24.5345 91.2574 40.3733 95.0025 52.6842 97.4671C84.4825 103.822 93.9906 102.674 109.612 111.155C124.629 119.358 128.471 127.718 143.573 132.527C156.862 136.743 167.808 136.61 171.3 135.897C188.455 132.382 191.838 124.553 208.486 116.459C228.131 106.927 248.246 110.116 254.577 107.869C277.06 111.155 292.947 126.438 302.504 135.656C303.875 137.157 305.162 138.735 306.358 140.379C332.937 170.014 320.698 194.974 341.756 205.92C357.607 214.147 379.499 210.245 392.607 209.544C404.93 208.867 414.112 207.019 422.508 205.823C432.489 204.45 442.614 204.503 452.579 205.98C456.832 206.524 460.408 207.587 463.561 207.188C482.71 204.361 487.434 201.377 507.658 189.827C515.801 185.176 522.796 179.256 530.613 173.482C546.79 161.497 565.033 134.447 603.102 114.695C605.18 113.62 607.415 112.52 609.783 111.421C628.074 102.964 656.9 93.5649 696.998 94.9179" stroke="#B195FF" stroke-opacity="0.5" stroke-width="0.5" stroke-miterlimit="10"/>
<path d="M6.91992 88.7927C24.8125 93.3232 40.3975 97.2495 52.7085 99.8228C83.3711 106.31 93.145 105.501 108.621 114.018C123.324 122.088 127.372 130.243 142.002 135.039C154.857 139.256 165.513 139.497 169.101 138.833C185.942 135.728 189.579 128.721 205.973 121.037C225.098 112.073 244.38 114.888 251.17 112.291C272.917 115.105 288.622 128.793 298.577 137.323C299.961 138.687 301.264 140.131 302.48 141.648C329.482 168.48 318.778 191.893 339.28 201.933C355.384 209.822 377.372 205.75 390.904 205.11C403.311 204.518 412.711 202.887 421.252 202.054C430.99 201.099 440.063 201.909 451.456 203.974C455.769 204.76 459.333 206.028 462.474 205.569C481.599 202.742 485.924 198.405 505.725 185.732C513.578 180.694 520.404 174.4 528.281 168.359C543.734 156.496 562.605 128.612 601.265 108.28C603.367 107.168 605.615 106.057 608.019 104.921C626.455 96.3193 655.632 86.5698 696.322 87.7175" stroke="#B195FF" stroke-opacity="0.5" stroke-width="0.5" stroke-miterlimit="10"/>
<path d="M7.51172 94.0257C24.9694 98.5562 40.2886 102.603 52.6117 105.346C82.2474 111.954 92.287 111.543 107.691 120C122.068 127.938 126.332 135.899 140.492 140.671C152.96 144.887 163.277 145.504 166.974 144.887C183.502 142.217 187.404 136.008 203.509 128.735C222.114 120.278 240.562 122.791 247.823 119.819C268.772 122.235 283.161 136.201 294.723 142.085C296.258 143.728 297.587 145.057 298.65 145.999C326.111 170.016 316.941 191.907 336.863 201.041C353.234 208.567 375.318 204.327 389.26 203.759C401.753 203.251 411.369 201.838 420.056 201.343C429.963 200.799 439.205 202.406 450.32 205.027C454.693 206.054 458.245 207.528 461.374 207.057C480.487 204.23 484.402 198.6 503.768 184.755C511.343 179.355 518 172.674 525.937 166.356C540.677 154.625 560.164 125.884 599.465 104.983C601.583 103.864 603.859 102.72 606.291 101.552C624.884 92.8297 654.484 82.754 695.681 83.7568" stroke="#B195FF" stroke-opacity="0.5" stroke-width="0.5" stroke-miterlimit="10"/>
<path d="M8.12793 98.7367C25.1869 103.267 40.2403 107.447 52.5755 110.335C81.1359 117.052 91.4897 117.052 106.761 125.557C120.811 133.349 125.294 141.117 138.97 145.877C151.051 150.082 161.03 151.024 164.848 150.504C181.073 148.294 185.229 142.869 201.092 136.007C219.214 128.154 236.793 130.244 244.525 126.922C264.701 128.807 278.945 141.504 290.906 146.397C292.159 147.647 293.486 148.821 294.88 149.912C322.764 171.139 315.165 191.387 334.495 199.711C351.144 206.875 373.301 202.465 387.654 201.982C400.242 201.547 410.077 200.351 418.896 200.243C428.972 200.11 438.396 202.538 449.269 205.691C453.691 206.972 457.243 208.639 460.372 208.107C479.448 205.268 482.976 198.297 501.908 183.329C509.156 177.566 515.692 170.511 523.654 163.914C537.681 152.341 557.772 122.718 597.713 101.237C599.84 100.029 602.147 98.9179 604.612 97.7339C623.35 88.7576 653.3 78.4041 695.089 79.1169" stroke="#B195FF" stroke-opacity="0.5" stroke-width="0.5" stroke-miterlimit="10"/>
<path d="M8.80469 103.45C25.4166 107.98 40.2164 112.293 52.5394 115.35C80.0246 122.139 90.5717 122.538 105.831 131.055C119.555 138.715 124.255 146.29 137.46 151.025C149.179 155.23 158.795 155.58 162.722 156.075C178.609 158.105 183.055 149.672 198.58 143.233C216.158 135.984 232.927 137.664 241.13 133.979C260.545 135.392 274.62 146.773 287.04 150.675C288.305 151.803 289.645 152.844 291.051 153.792C319.345 172.216 313.341 190.833 332.128 198.335C349.042 205.125 371.283 200.57 386.059 200.147C398.745 199.797 408.784 198.83 417.749 199.072C427.994 199.35 437.574 202.624 448.218 206.321C452.7 207.855 456.228 209.703 459.357 209.244C478.421 206.393 481.563 198.118 500.035 181.989C507.054 175.864 513.385 168.422 521.431 161.548C534.721 150.143 555.453 119.626 596.034 97.5179C598.185 96.3581 600.508 95.15 603.005 93.8935C621.888 84.736 652.237 74.008 694.57 74.5637" stroke="#B195FF" stroke-opacity="0.5" stroke-width="0.5" stroke-miterlimit="10"/>
<path d="M9.45703 108.174C25.634 112.752 40.1559 117.138 52.5031 120.351C78.9131 127.214 89.7139 128.035 104.9 136.564C118.299 144.079 123.216 151.412 135.937 156.245C147.282 160.449 156.572 161.077 160.583 161.717C176.072 164.134 180.868 156.547 196.115 150.518C213.174 143.765 229.121 145.142 237.784 141.095C256.425 142.049 270.404 152.089 283.137 155.012C284.415 156.02 285.768 156.929 287.185 157.73C315.866 173.363 311.529 190.35 329.615 197.03C346.855 203.421 369.133 198.722 384.307 198.384C397.089 198.106 407.346 197.369 416.456 197.973C426.87 198.661 436.608 202.805 447.022 206.949C451.552 208.761 455.08 210.791 458.197 210.32C477.237 207.469 480.016 197.9 498.066 180.6C504.807 174.113 510.969 166.296 519.063 159.132C531.725 147.909 552.988 116.485 594.21 93.8937C596.376 92.6936 598.724 91.4855 601.253 90.2693C620.293 80.9427 651.017 69.8884 693.906 70.2509" stroke="#B195FF" stroke-opacity="0.5" stroke-width="0.5" stroke-miterlimit="10"/>
<path d="M10.1094 112.885C25.8152 117.404 40.1075 121.97 52.4668 125.353C77.8378 132.263 88.856 133.544 103.97 142.061C117.054 149.443 122.177 156.643 134.427 161.391C145.385 165.595 154.349 166.501 158.457 167.287C173.535 170.15 178.693 163.336 193.65 157.73C210.19 151.533 225.304 152.548 234.437 148.138C252.318 148.621 266.09 157.344 279.283 159.277C280.577 160.16 281.943 160.932 283.367 161.584C312.362 174.475 309.753 189.697 327.198 195.641C344.644 201.585 367.067 196.849 382.664 196.547C395.531 196.342 406.005 195.822 415.284 196.789C425.855 197.888 435.75 202.829 445.946 207.541C450.525 209.631 454.053 211.818 457.158 211.359C476.174 208.496 478.602 197.659 496.133 179.162C502.62 172.325 508.613 164.134 516.756 156.667C528.74 145.661 550.584 113.308 592.434 90.0881C594.608 88.88 596.988 87.6719 599.55 86.3551C618.711 76.7989 649.832 65.4184 693.265 65.6359" stroke="#B195FF" stroke-opacity="0.5" stroke-width="0.5" stroke-miterlimit="10"/>
<path d="M10.7617 117.582C26.0689 122.101 40.0712 126.788 52.4426 130.328C76.7021 137.287 87.9982 139.014 103.04 147.544C115.798 154.792 121.162 161.787 132.905 166.475C143.5 170.679 152.138 171.863 156.331 172.793C171.01 176.043 176.507 170.075 191.198 164.88C207.206 159.226 221.486 159.903 231.066 155.131C248.174 155.131 261.789 162.536 275.393 163.479C276.712 164.238 278.094 164.88 279.525 165.4C308.955 175.572 307.989 189.006 324.782 194.225C342.65 199.77 365.001 194.853 381.021 194.684C393.972 194.539 404.664 194.249 414.064 195.578C424.804 197.088 434.832 202.96 444.823 208.094C449.45 210.511 452.966 212.818 456.071 212.347C475.075 209.496 477.153 197.378 494.2 177.686C500.422 170.498 506.281 161.981 514.424 154.164C525.756 143.376 548.155 110.092 590.646 86.2922C592.844 85.0599 595.241 83.7874 597.834 82.4746C617.164 72.8097 648.673 61.0909 692.661 61.0547" stroke="#B195FF" stroke-opacity="0.5" stroke-width="0.5" stroke-miterlimit="10"/>
<path d="M11.4141 122.317C26.2863 126.836 40.0229 131.632 52.4063 135.353C75.6026 142.336 87.1525 144.535 102.109 153.088C114.541 160.18 120.098 166.993 131.395 171.657C138.79 174.557 146.421 176.812 154.204 178.398C168.485 182.022 174.32 176.9 188.733 172.128C204.209 167.018 217.728 167.296 227.744 162.209C244.078 161.762 257.549 167.827 271.563 167.791C272.903 168.422 274.298 168.927 275.731 169.301C305.427 176.743 306.249 188.353 322.366 192.859C340.572 197.945 362.947 193.246 379.366 192.859C392.414 192.557 403.311 192.738 412.867 194.418C423.741 196.339 433.937 203.104 443.723 208.698C448.387 211.355 451.915 213.868 455.007 213.397C473.987 210.534 475.739 197.16 492.291 176.26C498.247 168.733 503.925 159.817 512.128 151.711C522.796 141.152 545.751 106.926 588.882 82.5462C591.093 81.3381 593.509 79.9971 596.13 78.6561C615.618 68.7858 647.513 56.753 692.045 56.5234" stroke="#B195FF" stroke-opacity="0.5" stroke-width="0.5" stroke-miterlimit="10"/>
<path d="M12.0664 127.043C26.5641 131.561 39.9866 136.454 52.37 140.332C74.5032 147.315 86.2946 149.997 101.191 158.562C113.272 165.509 119.059 172.142 129.872 176.781C137.079 179.758 144.502 182.182 152.078 184.03C165.984 188.004 172.133 183.74 186.268 179.415C201.213 174.824 213.862 174.812 224.397 169.327C239.97 168.397 253.284 173.144 267.697 172.118C269.062 172.616 270.469 172.988 271.901 173.229C301.936 178.001 304.521 187.726 319.949 191.544C338.506 196.135 360.881 191.375 377.723 191.085C390.867 190.867 401.97 191.266 411.671 193.308C422.738 195.64 433.019 203.299 442.636 209.352C447.312 212.299 450.863 214.969 453.944 214.498C472.912 211.623 474.338 196.993 490.37 174.884C496.084 167.007 501.605 157.741 509.821 149.32C519.873 139.003 543.359 103.823 587.142 78.851C589.365 77.5825 591.817 76.2536 594.475 74.8763C614.12 64.8369 646.425 52.4779 691.477 52.043" stroke="#B195FF" stroke-opacity="0.5" stroke-width="0.5" stroke-miterlimit="10"/>
<path d="M12.707 131.77C26.7215 136.276 39.9506 141.277 52.3341 145.373C73.3678 152.368 85.4492 155.533 100.261 164.111C112.04 170.925 118.021 177.4 128.362 181.979C135.381 184.979 142.589 187.513 149.94 189.566C163.483 193.879 169.947 190.496 183.768 186.594C198.193 182.547 210.009 182.196 221.015 176.337C235.815 174.948 248.971 178.367 263.807 176.337C265.195 176.707 266.615 176.945 268.048 177.05C298.42 179.176 302.734 186.932 317.497 190.109C336.404 194.193 358.779 189.385 376.044 189.215C389.273 189.07 400.593 189.687 410.439 192.091C421.675 194.833 432.065 203.387 441.501 209.898C446.2 213.148 449.764 215.939 452.845 215.492C471.789 212.617 472.924 196.718 488.425 173.401C493.886 165.186 499.298 155.582 507.477 146.823C516.949 136.759 540.919 100.673 585.354 75.0607C587.589 73.768 590.066 72.4149 592.76 71.0135C612.549 60.8049 645.218 48.1076 690.849 47.5156" stroke="#B195FF" stroke-opacity="0.5" stroke-width="0.5" stroke-miterlimit="10"/>
<path d="M13.3594 136.489C26.9389 141.007 39.9385 146.081 52.2978 150.394C72.3288 157.365 84.5914 161.05 99.3307 169.628C110.796 176.296 116.982 182.566 126.84 187.145C133.673 190.213 140.675 192.888 147.813 195.155C160.994 199.806 167.748 197.293 181.339 193.826C195.233 190.298 206.227 189.622 217.704 183.412C231.743 181.552 244.743 183.642 259.989 180.646C261.407 180.835 262.836 180.936 264.266 180.948C294.953 182.313 301.042 186.203 315.117 188.764C334.375 192.268 356.762 187.242 374.425 187.411C387.714 187.544 399.288 188.184 409.28 190.951C420.684 194.104 431.159 203.564 440.437 210.522C445.161 214.074 448.749 217.022 451.818 216.563C470.75 213.688 471.595 196.544 486.54 172.02C491.759 163.454 497.015 153.511 505.218 144.39C514.037 134.58 538.575 97.4789 583.59 71.3353C585.853 70.0144 588.346 68.6412 591.069 67.2156C611.003 56.8017 644.07 43.7903 690.245 42.9688" stroke="#B195FF" stroke-opacity="0.5" stroke-width="0.5" stroke-miterlimit="10"/>
<path d="M14.0119 141.204C27.1565 145.71 39.9024 150.869 52.2617 155.387C71.2537 162.322 83.7338 166.526 98.4006 175.128C109.54 181.651 115.931 187.74 125.33 192.295C134.029 196.523 141.036 198.94 145.687 200.752C158.518 205.717 165.561 204.086 178.875 201.078C190.918 198.313 202.77 194.774 214.358 190.483C227.068 186.013 240.333 181.567 256.124 184.937C257.557 185.137 259.013 185.104 260.437 184.841C291.534 181.772 299.302 185.445 312.701 187.414C332.321 190.289 354.696 185.336 372.782 185.602C386.204 185.795 397.947 186.677 408.084 189.794C419.645 193.418 430.217 203.736 439.338 211.141C444.074 214.995 447.699 218.088 450.767 217.617C469.663 214.73 470.242 196.33 484.595 170.597C489.573 161.681 494.707 151.424 502.874 141.953C511.041 132.481 536.183 94.4013 581.79 67.5811C584.061 66.2643 586.623 64.8508 589.341 63.389C609.432 52.8059 642.874 39.4683 689.617 38.4414" stroke="#B195FF" stroke-opacity="0.5" stroke-width="0.5" stroke-miterlimit="10"/>
<path d="M14.6641 145.924C27.3737 150.43 39.878 155.589 52.2373 160.422C70.1782 167.32 82.8878 172.056 97.4701 180.67C108.343 187.048 114.891 192.956 123.808 197.487C132.132 201.727 138.897 204.373 143.561 206.342C156.053 211.621 163.362 210.86 176.41 208.311C189.228 205.81 197.734 202.621 211.011 197.559C222.972 192.992 235.706 192.11 252.269 189.223C253.792 188.957 255.253 188.981 256.619 188.74C288.103 183.086 297.563 184.656 310.284 186.058C330.255 188.244 352.642 183.436 371.126 183.786C384.645 184.052 396.606 185.164 406.887 188.619C418.618 192.606 429.262 203.865 438.239 211.73C442.987 215.886 446.696 219.124 449.704 218.653C468.575 215.765 468.901 196.097 482.71 169.12C487.458 159.854 492.484 149.307 500.603 139.449C508.25 130.17 533.827 91.1844 580.062 63.7844C582.358 62.4434 584.895 61.0057 587.686 59.5077C607.922 48.7554 641.762 35.0917 689.037 33.8594" stroke="#B195FF" stroke-opacity="0.5" stroke-width="0.5" stroke-miterlimit="10"/>
<path d="M15.377 150.635C27.6517 155.142 39.9264 160.397 52.2615 165.386C69.1755 172.236 82.0905 177.468 96.6003 186.142C107.099 192.376 113.913 198.102 122.358 202.62C130.295 206.849 136.771 209.712 141.495 211.887C153.661 217.48 161.236 217.589 174.018 215.511C186.293 213.506 194.061 210.256 207.725 204.638C218.973 199.975 231.477 197.788 248.464 193.523C249.974 193.149 251.472 192.992 252.861 192.641C284.756 184.414 295.919 186.081 307.928 184.704C328.386 182.457 348.968 181.553 369.544 181.998C383.159 182.324 395.325 183.665 405.788 187.507C417.688 191.904 428.392 204.07 437.2 212.382C441.948 216.84 445.657 220.211 448.701 219.752C467.56 216.852 467.621 195.928 480.862 167.803C485.38 158.198 490.322 147.361 498.368 137.104C505.435 128.104 531.483 88.1153 578.359 60.1474C580.666 58.7823 583.191 57.3204 586.055 55.7982C606.448 44.8527 640.663 30.8627 688.493 29.4492" stroke="#B195FF" stroke-opacity="0.5" stroke-width="0.5" stroke-miterlimit="10"/>
<path d="M15.9688 154.031C27.8085 158.537 39.8537 163.829 52.213 169.072C68.1121 175.85 81.2084 181.685 95.7061 190.323C105.891 196.364 112.91 201.969 120.884 206.451C128.435 210.692 134.632 213.773 139.392 216.116C151.269 222.012 159.073 222.99 171.589 221.384C183.333 219.874 190.4 216.624 204.415 210.293C214.974 205.521 227.297 202.078 244.646 196.4C246.156 195.905 247.654 195.578 249.08 195.107C281.41 184.331 294.228 183.316 305.548 181.939C326.242 179.392 347.091 178.33 367.937 178.761C381.637 179.16 394.02 180.731 404.58 184.935C416.661 189.767 427.413 202.803 436.136 211.513C440.872 216.273 444.593 219.801 447.674 219.33C466.509 216.418 466.34 194.237 478.977 164.892C483.266 154.925 488.159 143.823 496.096 133.167C502.608 124.432 529.115 83.4531 576.631 54.9054C578.951 53.516 581.548 52.03 584.399 50.4837C604.938 39.3569 639.551 25.0407 687.925 23.4219" stroke="#B195FF" stroke-opacity="0.5" stroke-width="0.5" stroke-miterlimit="10"/>
<path d="M16.585 155.858C27.9898 160.365 39.8296 165.656 52.0922 171.177C66.9765 177.882 80.3144 184.249 94.643 192.923C104.514 198.855 111.726 204.256 119.229 208.701C126.405 212.954 132.325 216.228 137.133 218.813C148.719 225.011 156.754 226.847 168.992 225.724C180.204 224.697 186.619 221.532 200.935 214.464C210.818 209.632 222.996 204.896 240.647 197.792C242.169 197.188 243.679 196.693 245.117 196.101C277.93 182.751 292.307 179.018 302.999 177.677C323.815 175.08 346.42 173.412 366.149 174.053C379.946 174.5 392.534 176.312 403.251 180.879C415.489 186.098 426.29 200.051 434.904 209.281C439.64 214.355 443.446 218.004 446.478 217.533C465.301 214.633 464.89 191.172 476.935 160.631C480.995 150.313 485.863 138.957 493.656 127.879C499.624 119.422 526.578 77.4518 574.734 48.3242C577.078 46.9228 579.688 45.4005 582.575 43.8179C603.271 32.522 638.258 17.8797 687.188 16.0312" stroke="#B195FF" stroke-opacity="0.5" stroke-width="0.5" stroke-miterlimit="10"/>
<path d="M17.2617 157.595C28.2437 162.089 39.8902 167.381 52.0924 173.204C66.3577 179.888 80.2624 187.316 93.7492 195.458C103.306 201.257 110.663 206.488 117.755 210.885C124.533 215.174 130.187 218.629 135.043 221.42C146.352 227.932 154.603 230.614 166.564 229.985C177.256 229.43 183.055 226.422 197.625 218.557C206.88 213.567 218.925 207.623 236.829 199.106C238.352 198.381 239.874 197.717 241.336 197.016C274.62 181.093 290.447 174.001 300.619 173.337C321.87 171.984 344.39 168.505 364.542 169.266C378.436 169.761 391.23 171.839 402.091 176.756C414.499 182.386 425.336 197.294 433.841 206.959C438.553 212.335 442.419 216.128 445.451 215.669C464.25 212.746 463.573 188.016 475.051 156.278C479.104 144.39 484.589 133.039 491.385 122.475C496.821 114.272 524.21 71.3237 572.995 41.6162C575.351 40.1906 577.984 38.6442 580.908 37.0374C601.749 25.5603 637.135 10.5918 686.608 8.57422" stroke="#B195FF" stroke-opacity="0.5" stroke-width="0.5" stroke-miterlimit="10"/>
<path d="M17.9141 159.263C43.7954 170.298 68.8311 183.219 92.8189 197.923C131.407 221.59 141.954 234.372 164.099 234.166C180.228 234.009 184.034 227.147 232.963 200.339C269.763 180.176 288.163 170.136 298.203 168.928C334.278 164.712 373.712 159.493 400.895 172.552C420.491 181.964 435.931 214.933 444.388 213.628C469.457 209.738 459.562 164.7 489.089 116.979C494.007 109.03 521.818 65.1147 571.243 34.8272C590.428 23.0723 628.944 3.52496 686.016 1" stroke="#B195FF" stroke-opacity="0.5" stroke-width="0.5" stroke-miterlimit="10"/>
</svg>
