<svg width="2306" height="824" viewBox="0 0 2306 824" fill="none" xmlns="http://www.w3.org/2000/svg">
<path d="M60.4076 76.4702C141.298 117.032 212.965 173.824 270.94 243.304C356.384 346.979 351.737 410.494 433.805 469.72C513.569 527.238 623.045 543.087 711.866 521.359C833.061 491.687 838.543 410.931 993.9 283.026C1085.26 207.871 1256.59 66.7779 1458.66 80.4424C1560.75 87.3541 1662.24 133.194 1756.58 175.776C1872.22 227.971 1888.82 254.783 1951.23 267.137C2025.35 281.834 2139.95 271.387 2304.76 140.026" stroke="#B195FF" stroke-opacity="0.5" stroke-miterlimit="10"/>
<path d="M58.1434 91.3273C131.034 126.962 196.744 175.705 251.992 235.122C257.275 240.881 262.558 246.8 267.881 252.878C354.2 353.295 350.783 413.951 431.819 471.707C467.142 496.981 507.137 514.979 549.478 524.657C579.807 531.561 610.912 534.446 641.993 533.237C665.236 532.32 688.302 528.789 710.754 522.711C735.773 516.28 759.557 505.757 781.143 491.568C820.866 465.352 848.673 429.959 891.454 385.55C923.68 352.127 958.741 321.559 996.244 294.189C1016.11 279.491 1039.3 261.775 1066.12 243.622C1137.86 194.923 1229.66 142.013 1339.81 123.741C1377.19 117.363 1415.16 115.231 1453.02 117.385C1458.82 117.703 1464.58 118.18 1470.26 118.736C1526.51 124.178 1580.09 138.597 1634.83 157.743C1675.79 171.884 1714.52 189.521 1752.93 206.085C1769.02 213.155 1783.4 219.59 1796.39 225.628C1874.84 262.212 1895.22 281.835 1948.8 290.415C1989.52 296.93 2042.19 295.778 2109.05 272.58C2163.86 253.593 2228.77 219.392 2304.76 162.827" stroke="#B195FF" stroke-opacity="0.5" stroke-miterlimit="10"/>
<path d="M56.038 106.263C128.173 140.551 193.479 187.658 248.774 245.291C254.071 250.852 259.367 256.545 264.664 262.371C352.054 359.571 349.949 417.288 429.872 473.693C465.279 499.297 505.402 517.643 547.929 527.676C578.437 534.625 609.746 537.404 641 535.938C664.278 534.751 687.326 530.75 709.642 524.021C734.537 516.826 758.191 505.883 779.793 491.568C821.105 464.557 850.42 430.317 892.725 388.847C925.103 357.371 960.569 329.238 998.587 304.874C1018.45 291.845 1041.13 275.877 1067.67 260.067C1138.37 217.922 1224.57 173.711 1333.61 159.292C1371.28 154.102 1409.35 152.4 1447.34 154.207C1453.22 154.525 1459.02 154.922 1464.74 155.439C1521.94 160.444 1574.18 172.797 1630.03 189.838C1672.09 202.708 1710.46 220.027 1749.19 236.353C1765.28 243.106 1779.82 249.263 1793.13 255.022C1871.82 289.223 1892.91 307.257 1946.3 313.613C1986.98 318.459 2039.25 315.797 2106.46 292.322C2161.36 273.096 2227.1 239.531 2304.76 185.707" stroke="#B195FF" stroke-opacity="0.5" stroke-miterlimit="10"/>
<path d="M53.5353 120.96C125.081 153.95 190.12 199.519 245.557 255.499C250.84 260.901 256.163 266.383 261.446 271.984C349.989 365.927 348.996 420.783 427.846 475.68C465.186 501.658 501.969 520.367 546.26 530.735C576.973 537.741 608.514 540.415 639.967 538.679C663.289 537.213 686.322 532.726 708.49 525.332C733.273 517.378 756.83 506.015 778.482 491.568C821.303 463.763 852.089 430.754 893.957 392.263C926.515 362.717 962.417 337.081 1000.93 315.877C1020.99 304.516 1043 290.296 1069.21 276.83C1139.25 240.842 1219.49 205.608 1327.42 194.963C1365.38 190.975 1403.59 189.714 1441.74 191.189C1447.66 191.467 1453.65 191.824 1459.22 192.301C1515.34 196.898 1570.89 206.888 1625.1 222.133C1668.28 233.692 1706.33 250.852 1745.54 266.741C1761.63 273.255 1776.29 279.094 1789.95 284.576C1868.84 316.354 1890.69 332.719 1943.84 336.97C1984.51 340.227 2036.51 335.937 2103.96 312.183C2158.98 292.957 2225.43 259.63 2304.76 208.349" stroke="#B195FF" stroke-opacity="0.5" stroke-miterlimit="10"/>
<path d="M51.2316 135.776C122.086 167.483 186.782 211.456 242.339 265.668C247.623 270.911 252.985 276.155 258.229 281.557C347.725 372.402 348.122 424.041 425.86 477.705C464.034 503.962 499.586 523.187 544.672 533.793C575.56 540.868 607.312 543.424 638.935 541.38C662.363 539.681 685.44 534.721 707.497 526.643C732.114 517.995 755.548 506.291 777.25 491.807C821.581 463.167 854.035 431.508 895.308 395.639C924.425 370.376 958.864 348.29 1003.39 326.84C1023.61 317.069 1045.14 304.556 1070.92 293.474C1140.68 263.483 1214.56 237.465 1321.18 230.593C1359.39 227.775 1397.72 226.94 1436.02 228.091C1442.02 228.329 1447.94 228.647 1453.62 229.044C1509.84 232.731 1565.65 241.182 1620.45 254.308C1664.82 264.556 1702.32 281.597 1741.93 296.929C1757.81 303.206 1772.87 308.846 1786.85 313.97C1865.9 343.524 1888.5 358.022 1941.49 360.128C1982.17 361.756 2033.81 355.917 2101.54 331.925C2156.56 312.421 2223.81 279.69 2304.76 231.03" stroke="#B195FF" stroke-opacity="0.5" stroke-miterlimit="10"/>
<path d="M48.9674 150.593C119.114 181.039 183.451 223.414 239.122 275.837C244.405 280.882 249.768 285.887 255.011 291.051C345.58 378.439 347.208 427.496 423.795 479.652C462.803 506.226 497.123 525.968 542.964 536.812C574.058 543.948 606.046 546.385 637.862 544.041C661.296 542.097 684.309 536.675 706.146 527.954C730.617 518.575 753.95 506.462 775.701 491.846C821.582 462.452 855.743 432.263 896.34 399.016C926.331 374.547 961.526 355.321 1005.54 337.764C1026 329.581 1047.05 318.856 1072.27 309.958C1142.31 285.728 1209.4 269.164 1314.9 265.986C1351.57 264.874 1392.12 263.483 1430.3 264.794C1436.38 264.993 1442.22 265.271 1448.01 265.589C1504.26 268.362 1560.22 275.266 1615.45 286.244C1660.93 295.182 1698.15 312.103 1738.19 327.118C1754.28 333.156 1769.26 338.36 1783.6 343.285C1862.8 370.813 1886.28 384.318 1938.91 383.484C1979.59 382.849 2030.91 376.056 2098.88 351.706C2153.93 331.845 2222.02 299.79 2304.6 253.791" stroke="#B195FF" stroke-opacity="0.5" stroke-miterlimit="10"/>
<path d="M46.6633 165.372C116.115 194.587 180.104 235.378 235.904 286.008C241.187 290.854 246.59 295.66 251.793 300.586C343.474 384.797 346.334 430.835 421.769 481.64C461.492 508.452 494.66 528.75 541.335 539.873C572.575 547.025 604.728 549.343 636.67 546.745C660.181 544.529 683.197 538.631 704.875 529.267C729.146 519.117 752.362 506.61 774.192 491.928C821.581 461.699 857.61 432.821 897.333 402.354C928.238 378.521 964.227 362.394 1007.64 348.69C1028.42 342.096 1051.02 338.282 1073.58 326.803C1146.79 323.744 1204.39 295.025 1308.43 301.778C1345.17 304.201 1386.36 300.824 1424.38 301.778C1430.54 301.976 1436.49 302.175 1442.21 302.453C1503.47 305.353 1550.34 308.729 1610.4 318.342C1657 325.929 1693.82 342.771 1734.3 357.309C1750.19 363.109 1765.48 368.034 1780.18 372.682C1859.43 397.786 1883.74 408.432 1936.29 406.446C1977.01 404.817 2028.01 395.84 2096.22 371.292C2151.35 351.43 2220.15 319.653 2304.44 276.316" stroke="#B195FF" stroke-opacity="0.5" stroke-miterlimit="10"/>
<path d="M44.3593 180.188C113.108 208.171 176.746 247.351 232.686 296.137C238.009 300.824 243.412 305.392 248.576 310.08C341.567 391.034 345.619 434.132 419.901 483.626C460.618 510.717 492.396 531.531 539.825 542.931C571.336 550.173 603.798 552.359 635.995 549.406C662.172 547.221 683.663 539.356 704.08 530.538C728.171 519.637 751.304 506.735 773.238 491.968C822.137 460.945 860.192 433.576 899.002 405.691C930.78 382.771 967.722 369.544 1010.23 359.574C1031.44 354.608 1053.52 353.456 1075.41 343.446C1148.62 349.087 1199.47 333.317 1302.47 337.329C1339.41 338.799 1381.08 337.925 1418.98 338.759C1425.17 338.759 1431.21 339.037 1436.89 339.236C1499.18 341.579 1544.7 342.771 1605.83 350.755C1653.5 357.031 1689.97 373.754 1730.88 387.856C1746.77 393.417 1762.18 398.025 1777.24 402.394C1856.69 425.354 1881.75 434.172 1934.11 429.922C1974.82 426.704 2025.47 416.178 2093.95 391.351C2149.13 371.49 2218.72 340.03 2304.68 299.355" stroke="#B195FF" stroke-opacity="0.5" stroke-miterlimit="10"/>
<path d="M42.0951 194.964C110.11 221.758 173.375 259.311 229.469 306.186C234.792 310.714 240.234 315.084 245.597 319.493C339.542 397.189 344.904 437.309 417.915 485.452C459.466 512.821 490.013 534.191 538.237 545.79C569.898 553.113 602.545 555.206 634.883 551.987C661.418 549.564 682.55 541.063 702.849 531.729C727.914 520.209 748.53 506.704 771.769 492.006C822.217 460.229 867.859 441.122 900.154 409.027C936.739 393.416 970.94 363.624 1012.61 370.496C1034.3 374.071 1055.91 368.589 1077.04 360.089C1150.29 374.389 1194.66 365.372 1296.35 372.919C1333.45 375.66 1375.8 375.024 1413.38 375.62C1419.69 375.62 1425.73 375.62 1431.45 375.978C1494.69 377.765 1538.9 376.653 1601.07 382.929C1649.97 387.815 1685.96 404.459 1727.27 418.123C1743.16 423.446 1758.73 427.776 1774.1 431.827C1853.55 452.681 1879.61 459.394 1931.76 453.158C1972.52 448.272 2022.85 436.197 2091.53 411.092C2146.78 390.993 2216.97 360.089 2304.76 322.075" stroke="#B195FF" stroke-opacity="0.5" stroke-miterlimit="10"/>
<path d="M39.7914 209.739C107.111 235.4 170.02 271.397 226.252 316.433C231.574 320.763 237.017 324.735 242.419 329.065C337.754 403.504 343.991 440.645 415.929 487.477C458.354 515.084 487.629 537.011 536.608 548.888C568.47 556.244 601.337 558.217 633.85 554.727C660.743 552.065 681.518 542.81 701.737 533.078C726.326 521.161 746.703 507.02 770.418 492.045C822.376 459.393 870.401 442.551 901.504 412.323C939.36 398.42 975.707 370.535 1015.07 381.379C1036.6 387.298 1058.33 383.762 1078.63 376.731C1151.92 399.691 1189.85 397.506 1290.19 408.509C1327.46 412.481 1370.12 412.164 1407.78 412.481H1425.93C1490.2 413.673 1533.18 410.376 1596.3 414.865C1646.35 418.4 1681.9 435.004 1723.65 448.192C1739.54 453.276 1755.23 457.288 1770.96 461.022C1850.41 479.85 1877.42 484.498 1929.38 476.196C1970.14 469.642 2020.15 456.017 2089.07 430.674C2144.36 410.376 2215.5 379.989 2304.8 344.596" stroke="#B195FF" stroke-opacity="0.5" stroke-miterlimit="10"/>
<path d="M37.4873 224.477C104.031 249.047 166.52 283.444 222.875 326.524C228.238 330.496 233.68 334.468 239.082 338.44C335.45 409.583 343.037 443.744 413.864 489.385C457.162 517.19 485.365 539.713 534.94 551.828C566.979 559.279 600.063 561.147 632.738 557.35C660.028 554.45 680.406 544.678 700.505 534.311C724.617 521.758 744.797 507.26 768.988 492.046C822.495 458.6 872.864 443.943 902.537 415.621C941.704 403.386 978.011 399.017 1017.22 392.224C1039.7 396.514 1060.44 398.858 1080.06 393.336C1153.35 425.114 1184.77 429.643 1283.84 443.982C1321.26 449.424 1364.48 449.702 1401.98 449.265C1408.41 449.265 1414.57 449.265 1420.25 449.265C1485.55 448.431 1527.1 444.3 1591.34 447.081C1642.58 449.265 1677.65 465.79 1719.88 478.541C1735.77 483.347 1751.66 487.121 1767.55 490.457C1846.99 507.26 1874.8 509.762 1926.68 499.395C1967.47 491.212 2017.13 476.038 2086.36 450.417C2141.7 429.96 2213.48 400.05 2304.56 367.279" stroke="#B195FF" stroke-opacity="0.5" stroke-miterlimit="10"/>
<path d="M35.2231 239.253C101.111 262.718 163.289 295.519 219.856 336.652C225.179 340.624 230.661 344.318 236.063 348.052C333.702 415.858 342.402 447.08 411.957 491.33C456.129 519.453 482.863 542.492 533.39 554.886C565.705 562.424 599.101 564.159 632.023 560.01C659.829 556.872 679.889 546.504 699.552 535.62C723.386 522.552 743.248 507.577 767.836 491.926C822.813 457.685 875.605 445.213 903.927 418.797C944.365 408.271 981.229 406.881 1019.72 402.908C1042.48 409.264 1062.9 413.792 1081.81 409.741C1155.1 450.059 1180.04 461.658 1277.8 479.334C1315.38 486.127 1359.11 486.603 1396.49 485.928C1403.01 485.928 1409.17 485.928 1414.89 485.928C1481.14 484.458 1521.42 477.983 1586.69 479.135C1639.04 479.97 1673.72 496.454 1716.38 508.729C1732.27 513.336 1748.16 516.673 1764.65 519.89C1844.09 534.747 1873.01 535.064 1924.53 522.631C1965.33 512.78 2014.66 496.097 2084.14 470.198C2139.51 449.582 2212.25 420.148 2304.84 390.038" stroke="#B195FF" stroke-opacity="0.5" stroke-miterlimit="10"/>
<path d="M32.9191 253.991C98.099 276.41 159.91 307.629 216.638 346.782C222.001 350.754 227.483 354.012 232.885 357.547C331.835 421.976 341.647 450.258 409.971 493.278C455.017 521.6 480.479 545.195 531.801 557.866C564.234 565.452 597.776 567.081 630.791 562.672C658.598 559.256 678.777 548.293 698.321 536.853C721.519 523.268 741.221 507.816 766.406 492.126C822.932 457.051 878.068 446.803 905.079 422.254C946.828 413.396 984.089 414.747 1021.98 414.032C1044.98 422.413 1065.12 429.166 1083.28 426.584C1156.61 475.601 1175.04 494.112 1271.52 515.125C1309.26 523.308 1353.51 523.387 1390.69 523.069C1397.29 523.069 1403.48 523.069 1409.21 523.069C1476.5 520.964 1515.46 513.973 1581.76 511.709C1635.23 509.882 1669.51 527.598 1712.61 539.514C1728.66 543.841 1744.93 547.289 1761.35 549.842C1840.8 562.791 1870.67 560.885 1921.99 546.386C1962.83 534.867 2011.8 516.674 2081.52 490.497C2137.13 469.722 2210.46 440.725 2304.72 413.277" stroke="#B195FF" stroke-opacity="0.5" stroke-miterlimit="10"/>
<path d="M30.6145 260.227C95.0952 281.691 156.538 311.383 213.42 348.569C218.783 352.144 224.304 355.402 229.746 358.699C329.968 419.752 340.971 445.094 407.984 486.842C453.904 515.442 478.095 539.593 530.172 552.503C562.801 560.165 596.572 561.687 629.758 556.992C658.12 553.298 677.862 541.778 697.287 529.782C719.89 515.403 739.274 499.514 765.055 483.625C823.09 447.875 880.649 439.652 906.31 417.05C949.33 409.861 987.027 414.071 1024.33 416.375C1047.57 426.822 1067.39 435.76 1084.83 434.687C1158.19 492.364 1170.15 518.104 1265.29 541.937C1303.22 551.51 1347.99 551.709 1385.09 551.113L1403.68 550.755C1472.01 549.564 1509.62 537.25 1576.95 534.867C1631.65 532.88 1665.42 549.365 1708.95 560.686C1725.18 564.79 1741.62 567.959 1758.21 570.18C1837.46 581.222 1868.48 577.012 1919.57 560.487C1960.44 547.3 2009.1 527.597 2079.06 501.142C2134.67 480.209 2208.83 451.688 2304.76 426.902" stroke="#B195FF" stroke-opacity="0.5" stroke-miterlimit="10"/>
<path d="M28.2317 262.731C91.9902 283.104 153.051 311.113 210.084 346.148C215.486 349.564 221.008 352.583 226.45 355.641C328.141 413.397 340.098 435.96 405.998 476.317C452.832 505.116 475.712 529.863 528.584 543.051C561.423 550.724 595.422 552.072 628.765 547.023C657.445 543.051 676.95 531.134 696.096 518.423C718.301 503.845 737.567 487.4 763.625 471.233C823.21 434.569 883.112 428.651 907.463 407.955C951.794 402.434 991.318 403.308 1026.63 414.867C1051.94 423.169 1069.65 438.7 1086.22 438.7C1159.59 505.037 1165.03 538.006 1258.89 565.057C1296.95 576.1 1342.31 576.378 1379.21 575.544C1385.97 575.544 1392.24 575.226 1397.92 575.067C1467.28 573.24 1503.55 558.662 1571.95 554.53C1627.76 551.154 1661.13 567.639 1705.1 578.364C1721.48 582.295 1738.09 585.187 1754.84 587.023C1834.04 596.239 1866.06 589.685 1916.95 571.134C1957.82 556.239 2006.16 535.027 2076.35 508.334C2131.97 487.241 2206.96 459.197 2304.56 436.834" stroke="#B195FF" stroke-opacity="0.5" stroke-miterlimit="10"/>
<path d="M26.0471 265.153C89.1095 284.561 149.8 310.969 206.986 343.883C212.428 347.1 217.989 349.881 223.391 352.741C326.354 406.922 339.383 426.465 404.012 465.79C451.68 494.788 473.289 520.13 527.154 533.556C560.163 541.458 594.402 542.808 627.931 537.529C657.009 533.278 676.235 520.647 695.143 507.578C716.911 492.523 735.938 475.522 762.672 459.117C823.726 421.659 886.012 417.965 909.091 399.136C954.654 395.164 994.973 399.573 1029.29 413.635C1055.07 424.201 1072.27 441.441 1088.24 443.387C1161.61 518.422 1160.54 558.581 1253.17 588.691C1291.39 601.203 1337.19 601.521 1374.05 600.608L1392.88 599.972C1463.23 597.549 1498.18 580.667 1567.66 574.868C1624.66 570.061 1657.55 586.784 1702 596.913C1718.54 600.706 1735.32 603.36 1752.21 604.858C1831.34 612.286 1864.39 603.348 1915.08 582.772C1955.95 566.208 2003.94 543.487 2074.41 516.516C2149 486.839 2226.09 463.868 2304.76 447.876" stroke="#B195FF" stroke-opacity="0.5" stroke-miterlimit="10"/>
<path d="M23.743 265.946C86.1223 284.483 146.444 309.346 203.768 340.147C209.25 343.166 214.811 345.748 220.213 348.37C324.566 399.095 338.628 415.898 402.026 453.872C450.647 483.068 470.906 509.007 525.366 522.711C558.585 530.647 593.062 531.809 626.74 526.127C656.135 521.598 675.122 508.411 693.832 494.786C715.123 479.255 733.912 461.737 761.043 445.093C823.647 406.841 888.157 405.371 910.045 388.41C956.918 386.265 997.872 393.971 1031.36 410.456C1057.58 423.365 1074.3 442.591 1089.51 445.967C1162.92 529.662 1155.3 577.051 1246.66 610.219C1285.03 624.201 1331.39 624.519 1368.09 623.287C1374.96 623.049 1381.36 622.731 1387.04 622.493C1458.54 619.434 1492.03 600.328 1562.5 592.82C1620.61 586.624 1653.1 603.188 1697.99 612.999C1714.69 616.566 1731.63 618.903 1748.68 619.99C1827.77 625.671 1861.81 614.27 1912.3 591.708C1953.17 573.436 2000.84 549.245 2071.55 521.956C2146.8 492.119 2224.96 470.219 2304.76 456.613" stroke="#B195FF" stroke-opacity="0.5" stroke-miterlimit="10"/>
<path d="M21.439 263.684C83.147 281.334 143.103 304.616 200.55 333.237C206.032 336.058 211.633 338.441 217.035 340.864C322.818 388.014 338.072 401.838 400.04 438.779C449.574 468.174 468.522 494.748 523.777 508.651C557.18 516.678 591.878 517.733 625.707 511.749C655.459 506.903 674.209 493.199 692.68 479.018C713.534 463.129 732.085 444.976 759.693 428.094C823.806 389.047 890.779 389.722 911.276 374.707C959.42 374.231 1000.93 385.432 1033.7 404.34C1060.24 419.673 1076.6 440.726 1091.1 445.572C1164.51 537.966 1150.29 592.544 1240.46 628.731C1278.91 644.223 1325.87 644.62 1362.45 643.11C1369.36 642.832 1375.8 642.475 1381.48 642.197C1453.89 638.542 1486.07 617.092 1557.57 607.916C1616.84 600.29 1648.93 616.894 1694.18 626.228C1711.06 629.585 1728.18 631.643 1745.38 632.385C1824.43 636.358 1859.43 622.455 1909.72 597.906C1950.59 578.045 1997.98 552.226 2068.93 524.698C2144.72 494.559 2223.86 473.609 2304.64 462.295" stroke="#B195FF" stroke-opacity="0.5" stroke-miterlimit="10"/>
<path d="M19.1748 261.418C80.2067 278.253 139.785 299.972 197.333 326.364C202.854 328.985 208.455 331.091 213.858 333.315C321.11 377.01 336.999 387.933 398.054 423.683C448.462 453.237 466.139 480.446 522.149 494.627C555.746 502.772 590.689 503.706 624.674 497.368C654.784 492.164 673.295 478.023 691.568 463.247C711.985 446.762 730.258 428.212 758.342 411.091C824.004 371.369 893.401 374.07 912.507 360.962C956.359 361.483 999.17 374.386 1036.01 398.182C1062.82 415.977 1078.91 438.817 1092.65 445.173C1166.1 546.226 1145.24 608.034 1234.26 647.24C1272.8 664.281 1320.34 664.599 1356.77 662.93C1363.8 662.612 1370.24 662.215 1375.96 661.858C1449.33 657.488 1480.31 634.052 1552.84 623.009C1613.18 613.992 1644.96 630.596 1690.64 639.454C1706.53 642.513 1723.3 642.99 1742.28 644.737C1821.01 652.007 1857.28 630.636 1907.37 604.062C1948.25 582.374 1995.32 555.204 2066.5 527.398C2142.92 496.96 2223.09 476.919 2304.84 467.815" stroke="#B195FF" stroke-opacity="0.5" stroke-miterlimit="10"/>
<path d="M16.8711 259.155C77.2564 275.196 136.476 295.343 194.116 319.454C199.677 321.837 205.278 323.783 210.72 325.77C319.323 365.492 336.443 374.032 396.068 408.59C447.43 438.342 463.597 466.148 520.56 480.607C554.41 488.857 589.646 489.67 623.84 482.99C654.268 477.429 672.54 462.811 690.614 447.478C710.476 430.517 728.59 411.45 757.151 394.092C824.362 353.416 896.181 358.342 913.898 347.259C958.921 349.621 1002.23 365.283 1038.35 392.265C1065.32 412.483 1081.21 437.151 1094.2 444.976C1167.69 554.689 1140.16 623.726 1228.03 665.99C1266.68 684.541 1314.78 684.819 1351.17 682.952C1358.24 682.594 1364.75 682.118 1370.44 681.76C1444.84 676.715 1474.47 650.856 1548.08 638.304C1609.61 627.857 1640.79 644.58 1687.11 652.882C1704.4 655.288 1721.81 656.773 1739.26 657.331C1818.11 662.455 1855.18 639.019 1905.11 610.459C1945.94 587.062 1992.74 558.423 2064 530.339C2140.99 499.665 2222.12 480.628 2304.72 473.854" stroke="#B195FF" stroke-opacity="0.5" stroke-miterlimit="10"/>
<path d="M14.567 256.89C74.333 272.177 133.212 290.742 190.938 312.501C196.499 314.686 202.1 316.473 207.542 318.181C317.575 354.408 335.728 360.048 394.24 393.653C446.357 423.366 461.213 451.846 518.931 466.544C552.923 474.912 588.35 475.618 622.648 468.609C653.433 462.691 671.507 447.596 689.303 431.707C708.847 414.309 726.603 394.686 755.681 377.089C824.362 335.619 898.684 342.849 914.97 333.395C961.293 337.505 1005.21 355.848 1040.69 385.907C1067.75 408.629 1083.48 435.044 1095.75 444.339C1169.24 562.751 1135.04 639.256 1221.83 684.301C1260.56 704.4 1309.22 704.639 1345.45 702.573C1352.6 702.176 1359.15 701.659 1364.83 701.222C1440.31 695.502 1468.55 667.419 1543.23 653.198C1605.91 641.282 1636.66 658.124 1683.33 665.909C1700.79 668.184 1718.37 669.391 1735.97 669.524C1814.94 672.503 1852.79 647.002 1902.53 616.416C1943.4 591.351 1989.92 561.202 2061.42 532.999C2139.03 502.051 2221.17 483.978 2304.6 479.493" stroke="#B195FF" stroke-opacity="0.5" stroke-miterlimit="10"/>
<path d="M12.3424 254.627C80.3881 271.906 141.442 289.503 187.76 305.63C193.4 307.617 199.001 309.126 204.404 310.715C315.906 343.128 335.053 346.147 392.135 378.243C445.324 408.273 459.029 437.389 517.382 452.364C551.56 460.834 587.218 461.419 621.655 454.072C652.798 447.757 670.673 432.265 688.231 415.78C707.298 397.905 724.816 377.766 754.37 359.931C824.6 317.666 901.345 327.08 916.241 319.692C963.834 325.596 1008.28 346.588 1043.08 379.593C1070.17 404.817 1087.53 431.431 1097.38 443.784C1188.74 558.701 1129.91 654.749 1215.67 702.654C1254.44 724.342 1303.78 724.501 1339.85 722.237C1347.08 721.8 1353.63 721.204 1359.35 720.728C1435.74 714.332 1462.63 684.024 1538.42 668.175C1602.26 654.789 1632.57 671.711 1679.72 678.94C1697.29 681.547 1715.08 682.491 1732.83 681.76C1811.84 679.059 1850.57 654.987 1900.14 622.455C1940.98 595.642 1987.14 564.024 2059.04 535.424C2137.31 504.218 2220.49 487.099 2304.72 484.857" stroke="#B195FF" stroke-opacity="0.5" stroke-miterlimit="10"/>
<path d="M9.99878 252.361C78.7992 269.124 139.456 285.013 184.502 298.717C190.183 300.465 195.784 301.776 201.186 303.166C314.238 331.766 334.298 332.203 390.109 363.266C444.252 393.455 456.605 423.286 515.713 438.5C550.105 447.081 586.021 447.543 620.622 439.85C652.083 433.098 669.72 417.209 687.039 400.128C705.709 381.776 722.79 361.121 752.979 343.047C824.719 299.949 903.649 311.587 917.473 306.066C972.052 314.01 1014.95 342.451 1045.38 373.594C1072.43 401.399 1089.55 430.118 1098.89 443.505C1187.27 570.1 1124.71 670.517 1209.4 721.322C1248.21 744.559 1298.22 744.639 1334.13 742.176C1341.44 741.66 1348.07 741.064 1353.75 740.548C1431.17 733.437 1456.75 700.825 1533.58 683.387C1598.53 668.571 1628.4 685.612 1675.99 692.285C1693.74 694.691 1711.69 695.343 1729.57 694.231C1808.62 689.981 1848.26 663.288 1897.68 628.729C1938.48 600.209 1984.36 567.12 2056.57 538.242C2112.54 515.879 2193.89 491.608 2304.76 490.576" stroke="#B195FF" stroke-opacity="0.5" stroke-miterlimit="10"/>
<path d="M7.6947 250.099C77.2101 266.464 137.47 280.447 181.285 291.847C187.005 293.317 192.606 294.429 198.008 295.819C312.371 320.328 333.583 318.222 388.123 348.173C442.663 378.124 454.222 408.988 514.124 424.44C548.697 433.167 584.852 433.521 619.589 425.472C651.368 418.243 668.846 402.036 685.927 384.4C704.16 365.611 721.121 344.399 751.629 326.087C824.918 282.393 906.231 296.018 918.704 292.403C974.594 302.016 1017.54 333.794 1047.72 367.478C1074.7 397.588 1091.42 428.611 1100.44 442.95C1185.41 580.985 1119.46 686.05 1203.2 739.675C1242.01 764.541 1292.66 764.502 1328.49 761.84C1335.84 761.284 1342.51 760.609 1348.35 760.053C1426.76 752.108 1451.03 717.471 1528.89 698.324C1594.99 682.078 1624.46 699.238 1672.49 705.355C1690.43 707.574 1708.54 707.946 1726.55 706.468C1805.64 700.628 1846.12 671.313 1895.42 634.769C1936.17 604.54 1981.77 569.982 2054.31 540.826C2110.36 518.303 2192.46 494.47 2305 496.178" stroke="#B195FF" stroke-opacity="0.5" stroke-miterlimit="10"/>
<path d="M5.43054 247.833C75.6212 263.722 135.484 275.877 178.067 285.013C183.827 286.245 189.428 287.198 194.83 288.151C310.583 308.847 332.868 304.239 386.137 333.117C442.186 363.465 451.799 394.686 512.496 410.416C547.264 419.296 583.678 419.528 618.557 411.091C650.653 403.346 667.972 386.821 684.815 368.668C702.611 349.363 719.294 327.675 750.318 309.085C825.077 264.397 909.409 274.606 919.936 278.697C974.277 299.71 1020.08 325.053 1050.07 361.359C1076.92 393.892 1093.49 427.06 1102.03 442.75C1183.26 591.907 1114.18 701.977 1197 758.423C1235.81 784.878 1287.14 784.679 1322.81 781.859C1330.28 781.263 1336.95 780.548 1342.67 779.952C1422.11 771.452 1445 734.43 1523.93 713.616C1591.14 695.9 1620.17 713.219 1668.68 718.78C1686.79 720.804 1705.08 720.897 1723.22 719.058C1802.34 711.67 1843.7 679.693 1892.79 641.163C1933.55 609.385 1978.87 573.158 2051.69 543.724C2107.78 521.043 2190.72 497.726 2304.88 502.055" stroke="#B195FF" stroke-opacity="0.5" stroke-miterlimit="10"/>
<path d="M3.12683 245.571C74.0326 261.181 133.458 271.191 174.85 278.024C180.649 278.977 186.25 279.771 191.692 280.526C308.796 297.289 332.193 290.258 384.151 317.984C441.352 348.57 449.297 380.348 510.907 396.237C545.877 405.231 582.541 405.34 617.564 396.555C649.898 388.253 667.098 371.49 683.663 352.86C701.062 332.999 717.467 310.874 748.968 292.085C825.276 246.603 911.395 263.803 921.167 264.955C980.752 272.065 1022.58 316.276 1052.25 355.204C1072.32 382.361 1089.47 411.559 1103.42 442.315C1180.88 602.316 1108.74 717.669 1190.81 776.935C1229.58 804.979 1281.61 804.74 1317.17 801.682C1324.67 801.046 1331.43 800.252 1337.03 799.616C1417.43 790.281 1439 751.076 1519.04 728.712C1587.32 709.486 1616 727.083 1664.94 732.009C1683.25 733.838 1701.7 733.638 1719.96 731.413C1799.17 722.476 1841.27 687.719 1890.29 647.321C1930.97 613.597 1976.01 576.139 2049.18 546.466C2105.35 523.626 2189.01 500.746 2304.88 507.737" stroke="#B195FF" stroke-opacity="0.5" stroke-miterlimit="10"/>
<path d="M0.822754 243.305C72.3243 258.24 131.393 266.423 171.632 271.11C304.784 286.602 329.174 275.083 382.164 302.888C440.16 333.355 447.032 366.086 509.278 382.333C544.444 391.477 581.365 391.477 616.531 382.333C683.186 364.06 685.013 312.342 747.617 275.083C825.434 228.767 913.898 249.144 922.399 251.249C1035.69 279.055 1088.52 403.425 1105.12 441.916C1178.73 612.404 1103.54 733.358 1184.57 795.444C1231.6 831.472 1299.29 823.249 1331.55 819.277C1412.94 809.347 1433.2 767.877 1514.27 743.805C1605.64 716.635 1625.78 755.722 1716.86 743.805C1862.17 724.619 1885.48 615.105 2046.56 549.166C2102.77 526.167 2187.22 503.763 2304.76 513.416" stroke="#B195FF" stroke-opacity="0.5" stroke-miterlimit="10"/>
<path d="M2.96826 248.272C73.1987 263.207 131.274 272.105 171.513 277.031C301.13 293.396 326.433 282.592 379.106 310.437C436.029 340.626 443.617 372.404 504.313 388.769C538.744 397.866 574.887 398.33 609.54 390.12C675.321 374.589 677.864 324.141 739.514 288.312C815.663 243.744 901.465 262.294 911.396 263.922C1004.31 278.977 1055.55 370.537 1080.77 419.395C1085.94 429.365 1089.67 437.945 1092.69 444.142C1168.17 605.534 1096.9 721.761 1176.75 780.391C1224.41 815.307 1292.66 806.528 1326.26 802.754C1357.06 799.374 1386.91 790.066 1414.17 775.346C1441.98 761.404 1468 745.673 1510.78 735.227C1523.89 732.049 1535.56 730.301 1546.05 728.792C1609.61 719.616 1634.12 742.218 1710.7 728.593C1740.33 723.391 1768.86 713.197 1795.08 698.444C1866.22 658.722 1910.71 587.222 2020.86 535.027C2027.32 531.955 2034.08 528.962 2041.12 526.049C2097.84 502.454 2183.57 478.979 2302.9 487.995" stroke="#B195FF" stroke-opacity="0.5" stroke-miterlimit="10"/>
<path d="M5.11279 253.236C73.9132 268.171 131.154 277.427 171.433 282.908C297.435 300.108 323.533 290.098 376.047 318.023C431.937 347.576 440.2 379.076 499.189 395.163C532.912 404.235 568.306 405.188 602.469 397.944C667.257 384.955 670.713 336.136 731.37 301.498C805.891 258.956 889.428 272.66 900.312 276.592C986.273 307.377 1042.04 376.891 1068.02 422.929C1073.31 432.304 1076.96 440.526 1079.94 446.325C1157.16 598.819 1090.11 710.041 1168.68 765.335C1216.75 799.099 1285.75 789.804 1320.7 786.189C1351.74 783.003 1381.99 774.469 1410.12 760.965C1438.36 748.373 1464.78 734.749 1507.04 726.685C1520.19 724.143 1531.95 723.189 1542.44 721.68C1605.79 712.504 1629.23 730.339 1704.27 713.338C1733.55 706.589 1761.6 695.276 1787.37 679.813C1855.85 640.09 1902.57 566.088 2014.94 512.145C2021.5 509.047 2028.33 505.949 2035.44 502.93C2092.64 478.739 2179.63 454.19 2300.79 462.532" stroke="#B195FF" stroke-opacity="0.5" stroke-miterlimit="10"/>
<path d="M7.25793 258.203C74.6283 273.099 130.995 282.91 171.235 288.987C293.661 306.902 320.633 297.806 372.909 325.731C427.727 354.807 436.704 385.711 494.263 401.719C527.262 410.712 561.875 412.071 595.477 405.691C659.034 395.165 663.603 347.975 723.267 314.688C796.159 274.012 877.035 284.419 889.309 289.186C957.566 316.543 1015.59 364.502 1055.31 426.387C1060.71 435.165 1064.33 443.03 1067.23 448.472C1146.12 591.75 1083.36 698.404 1160.54 750.361C1209.16 783.013 1278.79 773.122 1315.1 769.745C1346.39 766.693 1377.03 758.911 1405.99 746.667C1434.75 735.425 1461.6 723.946 1503.23 718.186C1516.5 716.359 1528.29 716.16 1538.78 714.651C1602.06 705.435 1624.23 718.623 1697.67 698.166C1726.56 689.833 1754.12 677.42 1779.5 661.304C1845.32 621.304 1894.46 545.196 2008.83 489.346C2015.42 486.169 2022.33 483.004 2029.56 479.853C2087.24 455.106 2175.54 429.485 2298.49 437.191" stroke="#B195FF" stroke-opacity="0.5" stroke-miterlimit="10"/>
<path d="M9.40259 263.126C75.3429 278.061 130.876 288.389 171.195 294.904C290.046 313.533 317.932 305.351 369.81 333.315C423.516 361.955 433.367 392.183 489.178 408.152C521.485 417.191 555.372 419.089 588.486 413.713C651.129 405.768 656.492 360.088 715.202 328.111C786.466 288.985 863.727 304.556 878.305 301.895C962.32 318.856 1015.15 389.284 1042.64 429.959C1048.16 438.102 1051.7 445.57 1054.79 450.694C1135.43 584.876 1076.96 686.684 1152.71 735.224C1201.97 766.764 1272.12 756.317 1309.82 753.099C1341.38 750.195 1372.43 743.171 1402.17 732.206C1431.49 722.315 1458.66 713.02 1499.77 709.524C1513.12 708.372 1524.96 708.968 1535.52 707.459C1598.72 698.243 1619.62 706.624 1691.71 682.871C1722.26 672.781 1747.33 658.322 1772.27 642.592C1835.51 602.513 1886.83 523.863 2003.38 466.385C2010 463.127 2016.99 459.883 2024.36 456.653C2082.55 431.27 2172.13 404.577 2296.86 411.647" stroke="#B195FF" stroke-opacity="0.5" stroke-miterlimit="10"/>
<path d="M11.5084 268.093C75.8995 282.989 130.717 293.833 171.235 300.586C286.432 319.891 315.033 312.82 366.911 340.626C419.504 368.908 429.951 398.421 484.372 414.31C515.927 423.345 549.019 425.699 581.535 421.222C642.986 415.343 649.422 371.688 707.139 341.063C776.734 304.161 851.175 318.341 867.382 314.488C948.894 329.901 1001.69 395.442 1030.01 433.417C1035.65 440.964 1039.14 448.074 1042.32 452.841C1124.67 577.847 1070.61 674.848 1144.85 720.092C1194.74 750.519 1265.45 739.476 1304.46 736.497C1344.18 733.478 1372.18 725.256 1398.32 717.788C1428.19 709.248 1456 696.855 1496.24 700.866C1508.13 702.149 1520.14 701.948 1531.99 700.271C1595.15 691.055 1614.69 694.829 1685.4 667.54C1714.99 656.139 1739.62 640.449 1764.85 623.845C1825.5 583.805 1879.01 502.732 1997.7 443.387C2004.4 440.05 2011.47 436.714 2018.91 433.377C2077.59 407.438 2168.43 379.673 2294.99 386.068" stroke="#B195FF" stroke-opacity="0.5" stroke-miterlimit="10"/>
<path d="M13.6531 273.097C76.7731 287.993 130.598 299.354 170.957 306.544C282.698 326.405 312.212 320.367 363.852 348.252C415.492 376.137 426.575 404.896 479.367 420.824C525.366 434.687 563.699 431.708 574.702 429.126C633.373 415.224 642.43 383.644 699.194 354.369C767.121 319.334 838.821 332.244 856.537 327.239C935.507 341.142 988.219 401.639 1017.5 436.991C1023.22 443.943 1026.67 450.696 1029.89 455.144C1113.94 570.974 1064.41 663.051 1137.14 705.156C1187.75 734.471 1258.89 722.833 1299.29 720.052C1339.69 717.271 1368.01 709.804 1394.63 703.488C1425.01 696.298 1453.77 685.533 1492.86 692.405C1504.66 694.587 1516.73 694.869 1528.61 693.239C1591.69 684.024 1609.93 683.19 1679.2 652.405C1707.88 639.694 1731.96 622.732 1757.22 605.414C1815.33 565.691 1871.07 481.877 1991.86 420.666C1998.62 417.249 2005.77 413.833 2013.31 410.417C2072.5 383.883 2164.62 355.044 2292.96 360.764" stroke="#B195FF" stroke-opacity="0.5" stroke-miterlimit="10"/>
<path d="M15.7986 277.942C77.4885 292.957 130.439 304.874 170.838 312.342C279.004 332.679 309.392 327.794 360.794 355.679C411.242 383.087 423.159 411.29 474.402 427.179C519.13 441.042 556.39 439.334 567.552 436.871C625.071 424.08 635.082 395.48 690.932 367.556C757.19 334.348 825.991 346.066 845.376 339.75C921.843 352.104 974.357 407.278 1004.63 440.366C1009.09 445.75 1013.28 451.358 1017.18 457.169C1102.86 563.823 1057.97 650.934 1128.96 689.941C1180.32 718.104 1251.9 705.83 1293.65 703.327C1333.81 700.865 1363.32 694.072 1390.46 688.948C1421.4 683.109 1451.11 674.251 1489.01 683.665C1500.74 686.772 1512.97 687.555 1525 685.969C1588.04 676.714 1604.92 671.351 1672.81 636.991C1700.61 622.969 1724.05 604.816 1749.51 586.624C1805.13 546.901 1863.04 460.704 1985.94 397.625C1992.75 394.13 1999.98 390.634 2007.63 387.139C2067.22 360.008 2160.69 330.098 2290.86 335.182" stroke="#B195FF" stroke-opacity="0.5" stroke-miterlimit="10"/>
<path d="M17.9432 282.828C78.2032 297.763 130.28 310.077 170.758 318.181C275.309 339.074 306.571 335.301 357.933 363.186C407.309 390.157 419.941 417.645 469.595 433.454C513.29 447.318 549.279 446.881 560.759 444.537C617.166 432.978 628.288 407.238 683.027 380.624C747.617 349.283 813.756 359.77 834.571 352.381C908.495 363.186 960.731 413.434 992.152 443.743C996.661 448.681 1000.89 453.866 1004.82 459.274C1092.21 556.713 1051.97 638.779 1121.21 674.767C1173.33 701.818 1245.31 688.987 1288.41 686.684C1328.92 684.459 1359.11 678.382 1386.72 674.449C1419.54 669.936 1452.83 670.11 1485.59 674.966C1499.57 676.753 1511.33 680.249 1521.7 678.938C1584.66 669.643 1600.19 659.831 1666.69 621.857C1693.46 606.564 1716.46 587.1 1742.16 568.113C1795.35 528.708 1855.33 439.77 1980.5 374.824C1987.33 371.289 1994.68 367.674 2002.47 364.06C2062.61 336.254 2157.39 305.35 2289.23 309.799" stroke="#B195FF" stroke-opacity="0.5" stroke-miterlimit="10"/>
<path d="M20.2872 289.66C79.1171 304.556 130.36 317.466 170.838 325.926C271.655 347.257 303.791 344.596 354.676 372.6C403.019 399.134 416.326 425.947 464.431 441.717C506.697 455.58 541.732 456.374 553.53 454.189C608.904 443.981 620.861 420.942 674.765 395.679C737.647 366.205 801.045 375.46 823.369 366.92C894.871 376.175 946.511 421.18 979.243 449.224C983.793 453.71 988.077 458.458 992.073 463.445C1080.85 551.668 1045.66 628.649 1113.07 661.659C1166.02 687.597 1238.32 674.211 1282.81 672.106C1323.6 670.159 1354.51 664.797 1382.59 662.056C1414.61 658.918 1444.44 661.579 1481.9 668.372C1496.08 670.954 1507.8 675.124 1518.13 673.615C1581.01 664.32 1595.23 650.06 1660.33 608.391C1686.15 591.827 1708.6 571.132 1734.5 551.271C1785.3 512.263 1847.35 420.584 1974.46 353.732C1981.38 350.077 1988.77 346.423 1996.67 342.689C2057.29 314.407 2153.22 282.351 2287.01 286.125" stroke="#B195FF" stroke-opacity="0.5" stroke-miterlimit="10"/>
<path d="M22.2338 306.86C79.6336 321.756 130.003 335.063 170.52 344.08C267.961 365.808 300.971 364.458 351.618 392.263C398.888 418.361 412.91 444.538 459.466 460.228C500.46 474.091 534.384 476.117 546.539 474.091C600.88 465.312 613.711 444.895 666.661 420.982C727.835 393.177 788.492 401.439 812.366 391.667C881.246 399.612 928.556 445.531 966.571 464.875C971.616 470.278 975.985 474.647 979.481 477.745C1069.77 556.713 1039.62 628.69 1105.13 658.72C1158.95 683.467 1231.56 669.524 1277.4 667.657C1318.48 665.989 1350.1 661.341 1378.66 659.713C1411.23 657.925 1441.62 663.208 1478.16 671.828C1492.54 675.205 1504.22 680.051 1514.51 678.501C1577.35 669.206 1590.22 650.696 1653.9 605.174C1678.81 587.418 1700.69 565.452 1726.79 544.677C1775.25 506.107 1839.33 411.608 1968.55 342.888C1975.51 339.207 1982.99 335.447 1990.99 331.607C2052.12 302.928 2149.44 269.8 2284.9 273.096" stroke="#B195FF" stroke-opacity="0.5" stroke-miterlimit="10"/>
<path d="M24.2598 322.353C80.3488 337.249 129.844 350.993 170.401 360.486C264.306 382.572 298.349 382.572 348.559 410.536C394.757 436.157 409.494 461.699 454.461 477.349C494.184 491.172 526.995 494.271 539.548 492.563C592.896 485.294 606.561 467.458 658.717 444.896C718.302 419.077 776.099 425.949 801.522 415.025C867.859 421.222 914.693 462.97 954.018 479.057C958.14 483.168 962.504 487.028 967.087 490.616C1058.77 560.408 1033.78 626.983 1097.34 654.351C1152.08 677.907 1224.93 663.408 1272.12 661.819C1313.51 660.389 1345.85 656.457 1374.84 656.099C1407.97 655.662 1438.96 663.646 1474.71 674.014C1489.25 678.224 1500.93 683.706 1511.21 681.958C1573.94 672.624 1585.54 649.704 1647.78 600.488C1671.62 581.54 1693.11 558.343 1719.28 536.654C1765.4 498.601 1831.46 401.202 1962.79 330.576C1969.78 326.603 1977.36 322.949 1985.47 319.056C2047.08 289.542 2145.55 255.501 2282.95 257.844" stroke="#B195FF" stroke-opacity="0.5" stroke-miterlimit="10"/>
<path d="M26.4839 337.844C81.1031 352.74 129.764 366.921 170.281 376.971C260.651 399.295 295.33 400.605 345.5 428.61C390.625 453.794 406.078 478.699 449.495 494.27C488.026 508.094 519.646 509.246 532.556 510.874C584.792 517.548 599.41 489.822 650.454 468.65C708.251 444.816 763.387 450.338 790.359 438.222C854.194 442.87 900.471 480.288 941.307 493.119C945.468 496.826 949.874 500.25 954.495 503.367C1047.53 563.943 1027.78 625.155 1089.55 649.823C1145.17 672.147 1218.3 657.171 1266.88 655.781C1308.59 654.629 1341.6 651.451 1371.07 652.246C1404.76 653.159 1436.26 663.924 1471.25 676.079C1485.99 681.124 1497.59 687.201 1507.88 685.692C1570.56 676.317 1580.89 649.108 1641.62 596.079C1664.7 575.939 1685.52 551.47 1711.97 528.869C1755.67 491.371 1823.83 391.032 1957.26 318.341C1964.34 314.527 1971.98 310.555 1980.18 306.424C2042.27 276.315 2142.06 241.041 2281.25 242.868" stroke="#B195FF" stroke-opacity="0.5" stroke-miterlimit="10"/>
<path d="M28.6289 353.377C81.8181 368.432 129.565 382.851 170.162 393.417C256.997 415.98 292.509 418.681 342.441 446.725C386.494 471.432 402.662 495.543 444.49 511.432C481.79 525.256 512.337 527.321 525.525 529.426C576.45 537.371 592.22 512.425 642.351 492.604C698.44 470.399 750.874 474.927 779.356 461.621C840.648 464.759 886.608 497.768 928.476 507.381C932.678 510.694 937.127 513.682 941.783 516.318C1036.09 567.719 1021.83 623.568 1081.29 645.534C1137.98 666.547 1211.23 651.096 1261.12 649.983C1303.14 649.07 1336.87 646.647 1366.82 648.633C1401.06 650.897 1433.08 664.522 1467.32 678.146C1482.22 684.105 1493.82 690.778 1504.06 689.229C1566.67 679.854 1575.8 648.394 1635.15 591.512C1657.32 570.181 1677.57 544.481 1704.19 520.926C1745.82 484.024 1815.73 380.706 1951.27 306.426C1958.39 302.48 1966.11 298.508 1974.42 294.509C2037.03 263.844 2138.04 227.498 2279.06 228.689" stroke="#B195FF" stroke-opacity="0.5" stroke-miterlimit="10"/>
<path d="M30.7744 368.867C82.4144 383.723 129.407 398.738 170.044 409.86C253.462 432.581 289.69 436.792 339.383 464.796C382.403 489.066 399.246 512.74 439.525 528.351C475.554 542.175 505.028 545.154 518.534 547.736C568.109 557.15 585.07 534.747 634.248 516.315C688.628 495.938 738.322 499.275 768.353 484.776C827.143 486.365 872.427 515.044 915.805 521.4C920.057 524.305 924.549 526.843 929.231 528.987C1024.57 571.37 1015.99 621.42 1073.35 640.964C1130.71 660.507 1204.43 644.936 1255.72 643.943C1298.02 643.268 1332.46 641.56 1362.97 644.737C1397.73 648.352 1430.26 664.599 1463.78 680.09C1478.84 686.962 1490.44 694.152 1500.65 692.642C1563.17 683.228 1571.16 647.597 1628.79 586.783C1650.13 564.3 1669.83 537.368 1696.6 512.82C1736.01 476.633 1807.83 370.257 1945.43 293.911C1952.58 289.939 1960.4 285.966 1968.82 281.637C2031.82 250.216 2134.15 212.798 2276.96 213.513" stroke="#B195FF" stroke-opacity="0.5" stroke-miterlimit="10"/>
<path d="M32.9191 384.321C83.2482 399.177 129.287 414.589 169.964 426.228C249.728 449.108 286.869 454.788 336.324 482.832C378.272 506.666 395.909 529.665 434.519 545.077C469.357 558.9 497.759 562.793 511.543 565.852C559.806 576.537 577.88 556.914 626.183 539.834C678.817 521.244 725.769 523.468 757.27 507.778C813.518 507.778 858.285 532.128 903.014 535.226C907.35 537.721 911.896 539.835 916.599 541.542C1013.36 574.988 1010.19 619.159 1065.4 636.319C1124.15 654.551 1197.64 638.384 1250.31 637.828C1292.9 637.352 1328.05 636.398 1358.96 640.768C1394.27 645.733 1427.24 665.038 1460.09 681.92C1475.3 689.864 1486.86 697.451 1497.07 695.902C1559.56 686.528 1566.39 646.686 1622.44 581.939C1642.9 558.304 1662.16 530.3 1688.93 504.6C1726.2 469.128 1799.84 359.693 1939.55 281.441C1946.78 277.389 1954.66 273.205 1963.18 268.888C2026.74 237.111 2130.34 198.58 2274.97 198.461" stroke="#B195FF" stroke-opacity="0.5" stroke-miterlimit="10"/>
<path d="M35.0641 399.89C83.9632 414.746 129.128 430.516 169.845 442.751C246.113 465.71 284.088 472.939 333.265 501.063C374.14 524.38 392.413 546.783 429.554 562.116C453.868 571.65 478.961 579.066 504.551 584.281C551.504 596.197 570.69 579.355 618.08 563.665C668.965 546.862 713.415 547.776 746.346 531.053C800.051 529.583 844.343 549.524 890.421 549.405C894.827 551.479 899.414 553.141 904.126 554.37C1001.77 578.839 1004.47 617.012 1057.46 631.828C1117.32 648.551 1190.89 633.099 1244.87 631.828C1287.77 630.835 1323.6 631.431 1355.02 636.953C1390.77 643.268 1424.3 665.513 1456.48 683.904C1471.81 692.643 1483.41 700.905 1493.58 699.356C1555.98 689.942 1561.74 645.969 1616.16 577.25C1635.75 552.503 1654.42 523.188 1681.39 496.534C1716.46 461.817 1791.94 349.284 1933.75 269.125C1941.02 265.152 1948.96 260.743 1957.58 256.334C2021.66 223.881 2126.52 184.318 2272.94 183.563" stroke="#B195FF" stroke-opacity="0.5" stroke-miterlimit="10"/>
<path d="M37.2087 415.421C84.8764 430.277 129.009 446.364 169.725 459.115C242.498 482.074 281.267 490.893 330.246 519.056C369.969 541.896 388.996 563.704 424.549 578.957C448.244 588.747 472.652 596.715 497.56 602.79C543.281 615.859 563.5 601.837 609.976 587.616C659.113 572.522 700.704 572.482 735.342 554.448C786.545 551.39 830.32 567.001 877.71 563.624C882.196 565.262 886.823 566.485 891.533 567.279C990.285 582.969 998.786 614.945 1049.51 627.498C1110.53 642.592 1184.09 626.941 1239.47 625.988C1282.69 625.273 1319.19 626.584 1351.09 633.297C1387.48 640.963 1421.28 666.147 1452.9 686.048C1468.27 695.74 1479.95 704.519 1490.08 702.97C1552.45 693.516 1557.13 645.412 1609.85 572.721C1628.63 546.822 1646.79 516.355 1673.8 488.668C1706.85 454.746 1784.07 339.074 1928.03 256.969C1935.34 252.798 1943.4 248.428 1952.14 243.9C2016.73 210.891 2122.95 170.255 2271.08 168.825" stroke="#B195FF" stroke-opacity="0.5" stroke-miterlimit="10"/>
<path d="M39.3142 430.953C85.393 445.769 128.89 462.214 169.606 475.68C238.764 498.679 278.487 509.087 327.187 537.289C365.917 559.693 385.58 580.984 419.583 596.039C442.659 605.902 466.358 614.235 490.529 620.984C535.058 635.165 556.31 624.043 601.754 611.212C649.183 597.906 688.032 596.754 724.22 577.488C772.881 572.92 816.139 584.162 864.919 577.488C869.483 578.704 874.151 579.489 878.862 579.832C978.726 586.823 992.907 612.325 1041.45 622.772C1103.62 636.198 1177.18 620.388 1233.95 619.832C1277.44 619.356 1314.66 621.381 1347.04 629.286C1383.98 638.303 1418.14 666.426 1449.17 687.837C1464.62 698.522 1476.34 707.698 1486.47 706.228C1548.75 696.774 1552.49 644.5 1603.45 567.836C1621.41 540.825 1639.2 509.246 1666.09 480.447C1697.24 447.358 1776.05 328.708 1922.15 244.497C1929.5 240.247 1937.64 235.798 1946.5 231.19C2011.57 197.625 2118.98 155.877 2269.01 153.93" stroke="#B195FF" stroke-opacity="0.5" stroke-miterlimit="10"/>
<path d="M41.4594 446.485C86.1081 461.341 128.85 478.024 169.487 492.205C235.348 515.125 275.667 527.24 324.129 555.443C361.826 577.369 382.164 597.985 414.578 613.04C437.043 623.127 460.067 631.92 483.538 639.376C526.876 654.669 549.081 646.406 593.769 635.006C639.451 623.407 675.599 621.183 713.336 600.766C759.494 594.648 802.236 601.52 852.367 591.669C857.029 592.292 861.725 592.623 866.428 592.662C967.325 597.151 987.346 609.941 1033.62 618.363C1096.94 629.882 1170.55 613.358 1228.62 613.914C1272.32 614.351 1310.37 616.456 1343.22 625.552C1380.72 635.92 1415.16 667.022 1445.67 689.902C1461.2 701.581 1473 711.273 1483.09 709.763C1545.34 700.309 1548.12 643.944 1597.25 563.308C1614.41 535.144 1631.69 502.453 1658.67 472.463C1687.66 440.208 1768.34 318.221 1916.35 232.263C1923.79 227.92 1931.99 223.405 1940.94 218.717C2006.48 184.477 2115.2 141.696 2267.02 138.995" stroke="#B195FF" stroke-opacity="0.5" stroke-miterlimit="10"/>
<path d="M43.6047 461.977C86.8235 476.794 128.731 493.755 169.368 508.611C231.813 531.412 272.847 545.235 321.071 573.517C357.695 594.967 378.709 614.987 409.613 629.963C438.214 643.865 461.253 651.81 476.547 657.768C518.733 674.094 541.891 668.731 585.666 658.841C625.263 649.749 664.233 638.112 702.333 624.004C744.121 609.307 787.737 594.689 839.655 605.772C844.369 606.428 849.157 606.32 853.837 605.454C956.084 595.364 981.626 607.44 1025.68 613.915C1090.19 623.369 1163.76 607.083 1223.22 607.956C1267.35 608.592 1305.96 611.492 1339.29 621.74C1377.31 633.657 1412.07 667.579 1442.06 691.929C1457.63 704.601 1469.54 714.769 1479.63 713.22C1541.76 703.727 1543.67 643.23 1590.86 558.621C1607.22 529.306 1624.11 495.582 1650.96 464.44C1677.81 433.298 1760.48 308.093 1910.43 219.91C1917.9 215.58 1926.32 210.933 1935.26 206.126C2001.32 171.33 2111.27 127.476 2264.96 124.1" stroke="#B195FF" stroke-opacity="0.5" stroke-miterlimit="10"/>
<path d="M45.7494 477.506C87.5381 492.322 128.651 509.284 169.288 525.172C228.277 547.854 270.066 563.425 318.011 591.747C353.762 612.72 375.292 632.144 404.608 647.04C431.977 660.983 454.222 669.682 469.555 676.157C510.629 693.515 534.661 691.013 577.562 682.631C619.708 674.409 647.673 663.922 691.329 647.279C730.655 632.264 772.523 629.364 826.983 619.87C831.989 618.996 836.795 619.076 841.284 618.281C944.802 599.691 975.905 604.855 1017.73 609.463C1083.4 616.653 1157 600.843 1217.78 601.995C1262.23 602.869 1301.56 606.524 1335.36 617.884C1373.93 630.992 1408.93 668.013 1438.44 693.873C1454.05 707.537 1466.25 718.183 1476.14 716.634C1538.19 707.14 1539.26 642.472 1584.66 553.772C1600.27 523.305 1616.8 488.628 1643.49 456.215C1668.64 425.708 1752.73 297.524 1904.75 207.434C1912.3 203.025 1920.64 198.298 1929.82 193.373C1996.35 158.02 2107.62 113.094 2263.05 109.042" stroke="#B195FF" stroke-opacity="0.5" stroke-miterlimit="10"/>
<path d="M48.0931 492.999C88.4518 507.816 128.81 525.095 169.368 541.5C224.98 564.023 267.444 581.222 315.151 609.743C349.671 630.24 372.075 649.068 399.841 663.924C425.939 677.827 447.231 687.241 462.762 694.391C502.764 712.782 527.67 713.14 569.697 706.308C610.056 699.714 635.598 689.028 680.524 670.558C717.507 655.225 758.62 648.035 814.471 634.013C819.436 632.782 824.362 632.265 828.93 631.113C933.799 604.063 970.503 609.544 1009.99 605.016C1077.25 597.629 1144.92 594.657 1212.58 596.118C1257.34 597.191 1297.34 601.6 1331.74 614.231C1370.87 628.69 1406.07 668.691 1435.02 696.02C1450.64 710.677 1462.83 721.76 1472.84 720.25C1534.85 710.717 1535.05 641.918 1578.58 549.445C1593.44 517.865 1609.69 482.235 1636.14 448.51C1659.38 418.917 1745.02 287.437 1899.15 195.48C1906.74 190.991 1915.04 186.185 1924.45 181.18C1991.51 145.191 2104 99.1932 2261.26 94.5457" stroke="#B195FF" stroke-opacity="0.5" stroke-miterlimit="10"/>
<path d="M50.0396 504.162C88.9682 518.978 128.572 536.376 169.209 553.616C221.484 575.9 264.544 595.086 312.212 623.487C345.698 643.348 368.778 661.779 394.995 676.516C419.822 690.459 440.2 700.588 455.851 708.294C494.898 727.679 520.56 730.896 561.713 725.613C600.323 720.648 623.561 709.963 669.64 689.148C704.358 673.458 744.876 662.137 801.918 643.468C806.884 641.839 811.809 640.766 816.496 639.217C922.795 603.785 964.942 600.448 1002.16 595.92C1070.2 587.548 1138.75 584.056 1207.29 585.473C1252.34 586.784 1293.05 591.948 1327.77 605.771C1367.5 621.66 1402.85 664.52 1431.53 693.16C1447.1 708.811 1459.34 720.409 1469.46 718.86C1531.39 709.287 1530.84 636.357 1572.39 539.872C1586.49 507.101 1602.58 470.596 1628.67 435.561C1650.09 406.842 1737.24 272.104 1893.47 178.241C1901.1 173.673 1909.64 168.787 1919.01 163.702C1986.54 127.118 2100.35 80.0474 2259.4 74.7247" stroke="#B195FF" stroke-opacity="0.5" stroke-miterlimit="10"/>
<path d="M52.0659 510.158C89.5645 524.974 128.493 542.373 168.812 560.526C217.751 582.572 261.605 603.505 308.717 632.026C341.171 651.529 364.885 669.285 389.553 683.903C413.149 697.885 432.613 708.65 448.423 717.15C486.517 737.528 512.933 743.566 553.173 739.872C590.036 736.495 611.129 726.088 658.201 702.85C690.694 686.962 730.735 671.39 788.77 648.034C793.776 646.048 798.741 644.419 803.468 642.473C911.356 598.58 958.626 586.306 993.781 581.896C1062.22 573.356 1136.55 567.874 1201.41 569.98C1246.78 571.449 1288.17 577.408 1323.4 592.423C1363.64 609.583 1399.16 655.462 1427.48 685.81C1443.05 702.493 1455.56 714.489 1465.53 712.94C1527.42 703.407 1526.07 626.266 1565.67 525.848C1579.02 491.926 1595.03 454.587 1620.65 418.161C1640.27 390.356 1728.9 252.361 1887.23 156.591C1894.94 151.983 1903.52 146.978 1913.01 141.774C1981.06 104.634 2096.1 56.4905 2256.98 50.413" stroke="#B195FF" stroke-opacity="0.5" stroke-miterlimit="10"/>
<path d="M54.29 515.881C90.3983 530.657 128.691 548.056 168.812 567.202C215.715 589.179 261.433 613.602 305.777 640.37C337.198 659.437 361.389 676.636 384.707 691.095C406.991 705.197 425.582 716.557 441.55 725.733C478.731 747.143 505.862 755.962 545.188 753.896C580.343 752.069 599.41 742.178 647.316 716.319C677.744 699.914 717.348 680.37 776.218 652.366C781.223 649.983 786.228 647.798 791.034 645.494C900.471 593.14 952.509 569.823 985.955 567.639C1055.83 563.19 1129.87 551.75 1196.13 554.252C1241.81 555.881 1283.88 562.713 1319.59 578.88C1360.39 597.391 1396.02 646.408 1423.98 678.186C1439.47 695.862 1452.19 708.335 1462.16 706.825C1523.97 697.213 1521.74 615.901 1559.48 511.551C1572.8 472.462 1590.84 435.14 1613.18 400.408C1631.06 373.437 1721.11 232.224 1881.51 134.547C1889.26 129.86 1897.92 124.776 1907.53 119.493C1976.05 81.7565 2092.4 32.5407 2255.07 25.9071" stroke="#B195FF" stroke-opacity="0.5" stroke-miterlimit="10"/>
<path d="M56.4352 521.361C141.532 557.643 223.848 600.128 302.718 648.472C429.594 726.288 464.272 768.314 537.085 767.639C590.115 767.123 602.628 744.56 763.506 656.417C884.503 590.12 945.001 557.111 978.011 553.139C1096.62 539.276 1226.28 522.116 1315.66 565.056C1380.09 595.999 1430.85 704.401 1458.66 700.111C1541.09 687.321 1508.55 539.236 1605.64 382.333C1621.8 356.196 1713.25 211.806 1875.75 112.222C1938.83 73.5725 2065.47 9.30194 2253.12 1" stroke="#B195FF" stroke-opacity="0.5" stroke-miterlimit="10"/>
</svg>
